<svg width="280" height="280" viewBox="0 0 280 280" fill="none" xmlns="http://www.w3.org/2000/svg">
<path d="M179.384 31.7563L160.013 26.5658C106.775 12.3007 51.8575 44.0071 37.5924 97.2452L36.5458 101.151L28.7808 130.131L23.6239 149.376C22.8231 152.365 24.5969 155.436 27.5843 156.236L29.7483 156.816L35.7048 158.412L34.684 162.222C33.8832 165.21 35.657 168.281 38.6444 169.081L48.4626 171.712C58.1693 174.313 68.1817 168.532 70.7826 158.826L82.1113 116.546C84.7122 106.84 78.9316 96.8271 69.2249 94.2262L59.4067 91.5955C56.4193 90.795 53.3478 92.5674 52.5471 95.5559L51.5259 99.3667L48.8534 98.6506C62.142 52.2899 110.346 24.8545 157.114 37.3859L176.485 42.5764C223.251 55.1075 251.281 102.969 239.608 149.764L236.936 149.048L237.957 145.236C238.758 142.248 236.984 139.177 233.997 138.377L224.18 135.746C214.473 133.145 204.46 138.926 201.86 148.633L190.53 190.914C187.929 200.621 193.71 210.633 203.417 213.234L213.234 215.865C214.732 216.266 216.252 216.019 217.495 215.297L214.366 226.974C210.169 242.636 194.014 251.963 178.353 247.766L146.185 239.147C145.459 233.267 141.268 228.117 135.201 226.492L120.594 222.578C112.614 220.439 104.382 225.192 102.244 233.172C100.106 241.152 104.859 249.383 112.838 251.521L127.445 255.435C133.512 257.061 139.717 254.697 143.286 249.967L175.453 258.587C197.08 264.382 219.391 251.501 225.186 229.873L230.39 210.451C232.977 210.59 235.397 208.912 236.094 206.31L241.251 187.064L249.017 158.084L250.063 154.178C264.329 100.939 232.622 46.0214 179.384 31.7563Z" fill="#81F18E" stroke="#013229" stroke-width="6"/>
</svg>
