<svg width="227" height="215" viewBox="0 0 227 215" fill="none" xmlns="http://www.w3.org/2000/svg">
<rect x="7.93777" y="5.92955" width="170.126" height="169.901" rx="25" transform="matrix(0.989799 -0.142474 0.144169 0.989553 0.0483835 27.7788)" stroke="#004D40" stroke-width="14"/>
<path d="M53.4756 53L57.2804 79.1156" stroke="#004D40" stroke-width="8" stroke-linecap="round"/>
<path d="M74.2656 148.145L58.1742 169.556" stroke="#004D40" stroke-width="8" stroke-linecap="round"/>
<path d="M68.6914 63.9297L42.0006 67.7716" stroke="#004D40" stroke-width="8" stroke-linecap="round"/>
<path d="M92.8242 20.9609L117.163 188.018" stroke="#004D40" stroke-width="14" stroke-linecap="round"/>
<path d="M188.851 92.6289L21.199 116.761" stroke="#004D40" stroke-width="14" stroke-linecap="round"/>
<path d="M76.9902 166.848L55.4491 150.853" stroke="#004D40" stroke-width="8" stroke-linecap="round"/>
<path d="M155.86 50.6641L129.17 54.506" stroke="#004D40" stroke-width="8" stroke-linecap="round"/>
<path d="M145.687 85.6956C177.76 81.0792 207.475 103.18 212.11 134.99C216.744 166.8 194.557 196.372 162.484 200.989C130.411 205.606 100.695 183.505 96.0606 151.694C91.4264 119.884 113.614 90.3123 145.687 85.6956Z" fill="#F0F5EF" stroke="#004D40" stroke-width="10"/>
<path d="M153.041 162.211C152.357 164.433 152.324 166.376 152.379 167.436C152.404 167.919 152.049 168.322 151.563 168.362C151.052 168.403 150.587 168.026 150.522 167.52C150.062 163.94 149.246 157.001 156.421 147.983C165.067 137.116 175.256 141.867 181.499 130.919C181.499 130.919 177.889 135.774 163.873 138.901C152.778 141.376 149.754 152.744 149.675 152.93C149.629 152.775 146.749 142.84 154.007 134.604C162.082 125.442 177.954 132.214 185.79 120.367C185.79 120.367 192.483 138.007 182.222 149.648C175.45 157.333 166.063 156.867 158.949 157.493C156.163 157.738 153.85 159.589 153.041 162.211Z" fill="#81F18E"/>
<path d="M146.074 156.278C146.813 157.33 147.162 158.345 147.314 158.912C147.383 159.17 147.639 159.322 147.901 159.261C148.177 159.196 148.357 158.919 148.305 158.642C147.934 156.684 147.178 152.899 141.867 149.371C135.466 145.119 130.924 149.335 125.773 144.636C125.773 144.636 128.499 146.578 136.399 145.856C142.653 145.283 146.184 150.748 146.257 150.832C146.255 150.743 146.071 145.035 140.85 141.932C135.041 138.48 127.857 144.718 121.715 139.814C121.715 139.814 121.211 150.214 128.592 154.601C133.464 157.496 138.317 155.667 142.163 154.795C143.669 154.453 145.201 155.036 146.074 156.278Z" fill="#81F18E"/>
</svg>
