<svg width="109" height="108" viewBox="0 0 109 108" fill="none" xmlns="http://www.w3.org/2000/svg">
<ellipse cx="51.1929" cy="56.6978" rx="45.9078" ry="45.6314" fill="#D6EFD7"/>
<path d="M107.259 102.177L76.1546 71.0608C81.9517 64.1571 85.444 55.2736 85.444 45.5753C85.444 23.6006 67.531 5.78906 45.431 5.78906C23.331 5.78906 5.41797 23.6006 5.41797 45.5753C5.41797 67.55 23.331 85.3615 45.431 85.3615C55.4695 85.3615 64.6436 81.6757 71.6699 75.5996L102.73 106.677C103.978 107.919 106.007 107.919 107.259 106.677C108.511 105.436 108.508 103.424 107.259 102.177ZM45.4342 79.0499C26.8425 79.0499 11.7688 64.0616 11.7688 45.5753C11.7688 27.089 26.8393 12.1008 45.4342 12.1008C64.0258 12.1008 79.0963 27.0858 79.0963 45.5753C79.0963 64.0648 64.0258 79.0499 45.4342 79.0499Z" fill="#004D40"/>
<path d="M40.484 9.14107C60.5412 6.25398 79.1209 20.0744 82.0186 39.9626C84.9161 59.851 71.0441 78.3435 50.9868 81.2306C30.9296 84.1175 12.3506 70.2962 9.45301 50.4079C6.55557 30.5197 20.4269 12.0283 40.484 9.14107Z" fill="#F0F5EF" stroke="#004D40" stroke-width="6.91719"/>
<path d="M45.0779 57.0814C44.6465 58.4824 44.6255 59.7074 44.6605 60.3758C44.6764 60.6803 44.4523 60.9345 44.1459 60.9596C43.8238 60.9854 43.5303 60.7478 43.4894 60.4287C43.1998 58.1716 42.685 53.7964 47.209 48.1102C52.6608 41.2582 59.0847 44.2538 63.0212 37.3509C63.0212 37.3509 60.7453 40.4119 51.9075 42.3837C44.9119 43.944 43.0056 51.112 42.9553 51.2293C42.9262 51.1318 41.1106 44.867 45.6871 39.6746C50.7787 33.8977 60.7858 38.1671 65.727 30.6976C65.727 30.6976 69.9468 41.82 63.4774 49.1601C59.207 54.0052 53.2882 53.7115 48.803 54.1062C47.0461 54.2606 45.5877 55.4279 45.0779 57.0814Z" fill="#81F18E"/>
<path d="M40.6841 53.338C41.1501 54.0015 41.3704 54.6417 41.4662 54.9989C41.5099 55.1616 41.671 55.2573 41.8363 55.2188C42.01 55.178 42.1237 55.0037 42.0907 54.8291C41.8573 53.594 41.3804 51.2078 38.0316 48.983C33.996 46.3022 31.1317 48.9608 27.8837 45.9974C27.8837 45.9974 29.6027 47.2219 34.5841 46.7666C38.5271 46.4058 40.7534 49.8512 40.7998 49.9043C40.7985 49.8482 40.6825 46.2494 37.3904 44.293C33.7277 42.1164 29.198 46.0491 25.3252 42.9576C25.3252 42.9576 25.0076 49.5149 29.6613 52.2805C32.7333 54.106 35.7936 52.9527 38.2182 52.4032C39.1678 52.1878 40.1337 52.5551 40.6841 53.338Z" fill="#81F18E"/>
</svg>
