<svg width="233" height="234" viewBox="0 0 233 234" fill="none" xmlns="http://www.w3.org/2000/svg">
<g clip-path="url(#clip0_472_18099)">
<ellipse cx="91.2193" cy="100.298" rx="91.4107" ry="90.8604" fill="#D6EFD7"/>
<path d="M194.353 59.207C194.353 59.207 186.434 59.207 184.645 59.207C158.122 59.207 135.007 48.8662 116.685 30.082C98.3646 48.8655 75.2509 59.207 48.7287 59.207C46.9405 59.207 39.0204 59.207 39.0204 59.207C39.0204 59.207 39.0195 78.6237 39.0195 89.9447C39.0195 145.219 72.022 191.664 116.686 204.832C161.35 191.664 194.353 145.219 194.353 89.9447C194.353 78.6237 194.353 59.207 194.353 59.207Z" fill="#F0F5EF" stroke="#004D40" stroke-width="15" stroke-linecap="round" stroke-linejoin="round"/>
<path d="M127.922 150.49C127.796 154.063 128.52 156.964 129.025 158.518C129.254 159.225 128.89 159.965 128.188 160.217C127.449 160.48 126.612 160.104 126.314 159.378C124.21 154.239 120.24 144.248 127.249 128.004C135.695 108.429 152.639 111.458 157.502 92.7139C157.502 92.7139 154.103 101.358 134.641 111.555C119.235 119.625 119.296 137.719 119.252 138.027C119.122 137.816 110.911 124.188 118.354 109.075C126.636 92.26 152.78 96.0416 159.64 75.3315C159.64 75.3315 176.552 98.9008 166.03 120.265C159.085 134.368 145.031 137.391 134.771 141.138C130.752 142.605 128.072 146.272 127.922 150.49Z" fill="#81F18E"/>
<path d="M115.265 144.432C116.776 145.703 117.696 147.074 118.146 147.856C118.352 148.212 118.79 148.337 119.153 148.142C119.534 147.937 119.69 147.455 119.502 147.064C118.176 144.299 115.551 138.973 106.299 135.831C95.15 132.046 90.1179 140.111 80.6359 135.164C80.6359 135.164 85.4371 136.972 96.8213 132.771C105.832 129.445 113.225 136.169 113.367 136.265C113.329 136.134 110.784 127.723 101.834 125.178C91.8774 122.347 83.7479 134.461 72.7209 129.605C72.7209 129.605 76.1186 145.262 88.7696 148.86C97.1205 151.234 103.563 146.594 108.897 143.776C110.986 142.672 113.481 142.932 115.265 144.432Z" fill="#81F18E"/>
</g>
<defs>
<clipPath id="clip0_472_18099">
<rect width="233" height="233" fill="white" transform="translate(0 0.175781)"/>
</clipPath>
</defs>
</svg>
