<svg width="33" height="34" viewBox="0 0 33 34" fill="none" xmlns="http://www.w3.org/2000/svg">
<path d="M8.72529 24.9732C8.26785 25.9717 8.13092 26.8799 8.09054 27.38C8.07208 27.6078 7.88142 27.7746 7.65265 27.7631C7.41216 27.7505 7.21896 27.5451 7.22038 27.304C7.23013 25.5983 7.28347 22.2965 11.1883 18.517C15.8939 13.9626 20.3417 16.8213 23.9332 12.0798C23.9332 12.0798 21.9489 14.1301 15.226 14.7247C9.90456 15.195 7.78627 20.3335 7.73754 20.4157C7.7257 20.3404 7.00551 15.5065 10.9002 12.099C15.2333 8.30796 22.2012 12.4661 26.5909 7.40254C26.5909 7.40254 28.6054 16.0827 23.0998 20.8996C19.4656 24.0792 15.1233 23.2779 11.7714 23.1294C10.4585 23.071 9.26569 23.7948 8.72529 24.9732Z" fill="#004D40"/>
</svg>
