<svg width="20" height="20" viewBox="0 0 20 20" fill="none" xmlns="http://www.w3.org/2000/svg">
<path d="M7.32034 16.2987C7.21694 16.1948 7.15802 15.9976 7.14479 15.853C7.01613 14.4277 7.17766 12.7087 7.1484 11.2401C7.14599 11.1259 7.10752 11.0285 7.10471 10.9231C7.09389 10.485 7.11593 10.0449 7.10712 9.60684L1.39848 4.16434C0.488255 2.96193 1.22573 1.17956 2.71632 1H15.7452C17.0579 1.15431 17.8294 2.58518 17.2875 3.78759C17.1136 4.17356 16.7841 4.45773 16.4859 4.74951C14.7653 6.43329 12.9208 7.99882 11.2029 9.68701L11.1957 18.4574C11.0719 19.1564 10.0687 19.1319 9.9921 18.4165L9.96043 9.20604L16.0655 3.48738C16.4538 3.02967 16.2138 2.24489 15.5853 2.20241H2.87624C2.24898 2.24489 2.0069 3.02766 2.39608 3.48738L8.30071 9.12588L8.3464 16.0089C8.23818 16.4778 7.65622 16.6353 7.32034 16.2987Z" fill="#004D40" stroke="#004D40" stroke-width="0.5"/>
<path d="M13.3467 14.3572L18.424 14.3516C19.1126 14.4866 19.131 15.4185 18.424 15.5468H13.3811C12.715 15.4285 12.6889 14.5223 13.3467 14.3572Z" fill="#004D40" stroke="#004D40" stroke-width="0.5"/>
<path d="M13.3086 10.99L18.4661 10.9844C19.1162 11.0766 19.1659 12.0966 18.309 12.1828C16.7964 12.3347 15.0389 12.0706 13.5002 12.1828C12.7799 12.1439 12.6276 11.2397 13.3086 10.99Z" fill="#004D40" stroke="#004D40" stroke-width="0.5"/>
<path d="M13.2661 17.7642L18.5062 17.7578C19.2308 18.0264 19.02 18.9474 18.2673 18.9574C16.7418 18.8584 15.0444 19.0925 13.539 18.9574C12.7939 18.8905 12.61 18.1085 13.2661 17.7642Z" fill="#004D40" stroke="#004D40" stroke-width="0.5"/>
</svg>
