<svg width="33" height="34" viewBox="0 0 33 34" fill="none" xmlns="http://www.w3.org/2000/svg">
<path d="M8.72919 25.0005C8.27175 25.9991 8.13483 26.9072 8.09445 27.4073C8.07598 27.6351 7.88533 27.802 7.65655 27.7904C7.41607 27.7779 7.22287 27.5725 7.22429 27.3313C7.23404 25.6256 7.28737 22.3239 11.1922 18.5444C15.8978 13.99 20.3456 16.8487 23.9371 12.1071C23.9371 12.1071 21.9528 14.1574 15.2299 14.7521C9.90847 15.2224 7.79018 20.3609 7.74145 20.443C7.72961 20.3678 7.00942 15.5338 10.9041 12.1263C15.2372 8.3353 22.2051 12.4935 26.5948 7.42989C26.5948 7.42989 28.6093 16.1101 23.1037 20.9269C19.4695 24.1065 15.1272 23.3052 11.7753 23.1568C10.4624 23.0984 9.26959 23.8221 8.72919 25.0005Z" fill="#81F18E"/>
</svg>
