<svg width="33" height="34" viewBox="0 0 33 34" fill="none" xmlns="http://www.w3.org/2000/svg">
<path d="M8.72529 24.9771C8.26785 25.9756 8.13092 26.8838 8.09054 27.3839C8.07208 27.6117 7.88142 27.7785 7.65265 27.767C7.41216 27.7544 7.21896 27.549 7.22038 27.3079C7.23013 25.6022 7.28347 22.3004 11.1883 18.5209C15.8939 13.9665 20.3417 16.8252 23.9332 12.0837C23.9332 12.0837 21.9489 14.134 15.226 14.7287C9.90456 15.1989 7.78627 20.3374 7.73754 20.4196C7.7257 20.3443 7.00551 15.5104 10.9002 12.1029C15.2333 8.31186 22.2012 12.47 26.5909 7.40645C26.5909 7.40645 28.6054 16.0866 23.0998 20.9035C19.4656 24.0831 15.1233 23.2818 11.7714 23.1333C10.4585 23.0749 9.26569 23.7987 8.72529 24.9771Z" fill="#DCDFDC"/>
</svg>
