<svg width="125" height="134" viewBox="0 0 125 134" fill="none" xmlns="http://www.w3.org/2000/svg">
<path d="M9.89983 115.857C7.11059 122.317 6.35238 128.157 6.15803 131.369C6.06904 132.832 4.87513 133.926 3.41587 133.881C1.88185 133.831 0.624864 132.538 0.603567 130.992C0.45102 120.055 0.37528 98.8785 24.7823 74.1515C54.1942 44.3548 82.8963 62.1202 105.185 31.2649C105.185 31.2649 92.7989 44.6618 50.0342 49.3259C16.1837 53.015 3.33219 86.2288 3.03202 86.7617C2.9471 86.2807 -2.25059 55.379 22.1384 33.0387C49.2726 8.18361 94.1976 33.9614 121.533 0.940111C121.533 0.940111 135.462 56.3382 100.985 87.9188C78.2274 108.765 50.4559 104.178 29.0783 103.65C20.7051 103.442 13.1951 108.234 9.89983 115.857Z" fill="#81F18E" fill-opacity="0.25"/>
</svg>
