<svg width="257" height="184" viewBox="0 0 257 184" fill="none" xmlns="http://www.w3.org/2000/svg">
<circle cx="128" cy="92" r="92" fill="#D6EFD7"/>
<g clip-path="url(#clip0_472_5128)">
<path d="M63.8128 17.0934C100.829 16.0328 136.711 24.326 173.46 25.777C199.642 26.8081 225.379 22.1754 251.131 21.3063C253.465 21.2253 255.377 21.4757 256.548 23.6853L256.993 148.997C257.074 154.013 252.139 153.777 248.367 154.205C219.71 157.445 186.629 159.272 157.957 156.959C133.169 154.963 107.936 150.198 83.0878 149.218C56.8987 148.187 31.1616 152.82 5.41716 153.689C3.08281 153.77 1.17088 153.52 0 151.31V23.6853C1.12641 21.0632 5.57278 21.0927 8.18132 20.7907C25.8704 18.7874 45.9903 17.6016 63.8128 17.0934ZM46.1755 26.8523V37.0532C46.1755 37.9885 45.0195 42.555 44.6638 43.8218C40.1359 60.1063 25.2035 72.1632 8.44069 74.0266V101.278C29.0867 102.707 45.9384 121.068 46.1681 141.522L61.4192 140.962C106.631 139.297 149.554 150.573 194.558 148.688C199.82 148.467 205.111 148.585 210.365 148.128V137.375C210.365 136.631 211.677 131.888 212.01 130.739C216.723 114.624 231.374 102.78 248.1 100.947V73.6952C227.498 72.2516 210.595 53.868 210.372 33.4516C192.846 34.8068 175.491 34.8657 157.95 33.4516C124.995 30.7927 94.8929 24.8195 61.4192 26.2852C56.3429 26.5062 51.237 26.4178 46.1681 26.845L46.1755 26.8523ZM8.45551 64.8937C19.8975 63.8626 30.8726 55.2232 34.9484 44.6394C35.5117 43.181 37.2976 37.6792 37.2976 36.5008V28.2296C37.2976 27.9571 36.3787 27.3237 35.9192 27.3826L8.45551 29.6069V64.8937ZM248.092 30.7117L219.25 32.9213C219.384 48.8965 232.034 63.2292 248.092 64.8937V30.7117ZM8.45551 110.102V144.284L37.2976 142.074C37.1642 126.099 24.5143 111.766 8.45551 110.102ZM248.092 110.102C236.65 111.133 225.675 119.772 221.6 130.356C221.036 131.814 219.25 137.316 219.25 138.495V146.766C219.25 147.038 220.169 147.672 220.629 147.613L248.092 145.388V110.102Z" fill="#004D40"/>
<path d="M128.093 37.5347C170.481 37.3506 194.351 87.5446 166.569 119.76C145.271 144.456 106.765 142.924 87.5716 116.652C63.5982 83.8399 87.6605 37.7041 128.1 37.5273L128.093 37.5347ZM128.093 46.3583C73.5877 46.6529 74.188 128.937 128.463 128.643C182.954 128.348 182.39 46.0636 128.093 46.3583Z" fill="#004D40"/>
<path d="M103.72 60.0552C105.35 59.9005 110.308 60.9022 112.212 61.2925C120.119 62.935 127.271 66.3598 133.073 71.9721C137.912 69.6521 142.766 67.5898 148.124 66.6986C152.059 66.0431 154.912 64.9899 157.239 68.9229C167.058 85.5536 161.611 103.967 143.641 111.31C135.489 114.639 131.154 115.508 122.617 113.262C100.807 107.517 90.425 94.1194 96.8203 71.3976C97.7615 68.0538 99.7549 60.4308 103.72 60.0625V60.0552ZM129.938 98.5238C129.983 95.0326 130.783 91.9687 130.427 88.3966C129.131 75.4853 118.148 70.9336 106.654 69.3132C100.274 84.7508 104.105 99.4739 121.616 103.481L109.53 82.6959C108.07 77.7538 113.761 74.5352 117.192 78.3872C121.357 83.0641 124.366 92.4916 128.367 97.5957C128.849 98.2071 128.923 98.7447 129.931 98.5164L129.938 98.5238ZM150.451 75.3748C148.013 75.5811 138.349 77.9011 137.786 80.1549C137.594 80.9209 139.179 86.6952 139.298 88.3892C139.683 93.7879 138.342 98.73 137.705 104.026C152.244 100.218 155.809 88.6838 150.451 75.3675V75.3748Z" fill="#004D40"/>
</g>
<defs>
<clipPath id="clip0_472_5128">
<rect width="257" height="141" fill="white" transform="translate(0 17)"/>
</clipPath>
</defs>
</svg>
