<svg width="330" height="472" viewBox="0 0 330 472" fill="none" xmlns="http://www.w3.org/2000/svg">
<path d="M56.3148 414.7C53.1613 435.334 55.3922 452.645 57.2603 461.995C58.1102 466.255 55.4964 470.297 51.257 471.279C46.7982 472.303 42.1984 469.557 40.9678 465.142C32.2579 433.918 16.0273 373.298 67.669 283.868C129.901 176.103 226.052 205.162 266.956 99.7846C266.956 99.7846 241.389 147.6 121.671 193.513C26.9061 229.848 14.9838 334.801 14.5216 336.556C13.9132 335.243 -24.4325 250.653 28.9619 168.076C88.3666 76.2032 237.329 115.874 291.137 0.449498C291.137 0.449498 373.169 148.586 297.69 265.318C247.867 342.372 164.363 350.365 102.355 365.124C78.067 370.901 60.0468 390.347 56.3148 414.7Z" fill="#81F18E"/>
</svg>
