<svg width="425" height="422" viewBox="0 0 425 422" fill="none" xmlns="http://www.w3.org/2000/svg">
<circle cx="211.112" cy="210.838" r="145.694" fill="#D6EFD7"/>
<rect x="10.6149" y="59.5469" width="343.313" height="344.966" rx="38" transform="rotate(-8.23996 10.6149 59.5469)" stroke="#004D40" stroke-width="18"/>
<path d="M95.4277 101.277L102.893 152.828" stroke="#004D40" stroke-width="18" stroke-linecap="round"/>
<path d="M143.52 291.883L111.947 334.148" stroke="#004D40" stroke-width="18" stroke-linecap="round"/>
<path d="M125.283 122.852L72.9141 130.435" stroke="#004D40" stroke-width="18" stroke-linecap="round"/>
<path d="M179.932 40.8242L227.686 370.586" stroke="#004D40" stroke-width="18" stroke-linecap="round"/>
<path d="M373.342 182.293L44.3986 229.929" stroke="#004D40" stroke-width="18" stroke-linecap="round"/>
<path d="M148.865 328.801L106.6 297.228" stroke="#004D40" stroke-width="18" stroke-linecap="round"/>
<path d="M302.613 99.457L250.244 107.041" stroke="#004D40" stroke-width="18" stroke-linecap="round"/>
<circle cx="300.131" cy="282.4" r="115.847" transform="rotate(-8.23996 300.131 282.4)" fill="#F0F5EF" stroke="#004D40" stroke-width="18"/>
<path d="M296.081 319.648C294.739 324.034 294.673 327.869 294.782 329.962C294.832 330.915 294.135 331.711 293.181 331.789C292.179 331.87 291.266 331.127 291.138 330.128C290.237 323.061 288.635 309.364 302.713 291.563C319.678 270.111 339.668 279.49 351.917 257.879C351.917 257.879 344.835 267.462 317.334 273.635C295.565 278.52 289.633 300.96 289.476 301.327C289.386 301.022 283.736 281.409 297.977 265.154C313.821 247.068 344.961 260.434 360.337 237.05C360.337 237.05 373.468 271.87 353.337 294.849C340.048 310.018 321.63 309.098 307.673 310.334C302.206 310.817 297.668 314.472 296.081 319.648Z" fill="#81F18E"/>
<path d="M282.411 307.938C283.862 310.015 284.547 312.019 284.845 313.137C284.981 313.647 285.483 313.947 285.997 313.826C286.538 313.698 286.891 313.152 286.789 312.606C286.062 308.739 284.578 301.269 274.157 294.304C261.599 285.911 252.686 294.234 242.579 284.957C242.579 284.957 247.928 288.79 263.43 287.365C275.699 286.236 282.627 297.022 282.772 297.188C282.768 297.012 282.407 285.746 272.162 279.621C260.765 272.807 246.669 285.119 234.618 275.44C234.618 275.44 233.629 295.969 248.111 304.627C257.67 310.342 267.193 306.732 274.738 305.011C277.693 304.337 280.699 305.487 282.411 307.938Z" fill="#81F18E"/>
</svg>
