<svg width="129" height="76" viewBox="0 0 129 76" fill="none" xmlns="http://www.w3.org/2000/svg">
<path d="M45.9012 0.0438865C54.8996 0.0438865 63.9023 0.0909083 72.9007 0.022513C76.3315 -0.00313529 79.1408 1.14676 81.5628 3.56197C86.5984 8.58475 91.7233 13.5178 96.7588 18.5405C99.9683 21.738 103.769 23.7343 108.141 24.803C113.108 26.0127 118.055 27.3251 122.988 28.6716C127.019 29.7745 128.951 32.3265 128.981 36.52C129.019 42.1797 129.002 47.8351 128.985 53.4948C128.968 58.9237 125.35 62.6683 119.932 62.6897C118.484 62.694 117.961 63.1215 117.629 64.5236C115.994 71.4187 110.273 75.9755 103.408 76.0054C96.414 76.0396 90.6464 71.4999 88.9821 64.5065C88.6458 63.0958 88.1009 62.694 86.6665 62.6983C71.8153 62.7581 56.9598 62.7538 42.1043 62.6983C40.7507 62.694 40.2612 63.1215 39.9462 64.4252C38.2479 71.4742 32.5525 76.0097 25.576 76.0054C18.6037 76.0011 13.0404 71.5341 11.2356 64.3868C10.9334 63.1984 10.5162 62.7581 9.2137 62.7239C3.25023 62.5657 -0.103957 58.7826 0.00245731 52.8237C0.121642 46.4373 0.0450231 40.0466 0.03651 33.6602C0.03651 31.0526 0.500478 28.5818 1.61145 26.1923C4.95286 19.015 8.27725 11.825 11.4867 4.5879C12.9212 1.3605 15.1516 -0.0458824 18.6846 0.00113942C27.7554 0.120831 36.8304 0.0396118 45.9012 0.0396118V0.0438865ZM56.6235 27.8637C40.3123 27.8637 24.0053 27.8637 7.6941 27.8637C3.5567 27.8637 3.09274 28.3296 3.00335 32.6C2.99058 33.113 3.0374 33.6303 2.99483 34.1432C2.91396 35.0879 3.29705 35.4684 4.25053 35.4342C5.63817 35.3872 7.03008 35.3872 8.41772 35.4342C10.6737 35.5197 11.6102 36.567 11.3335 38.8368C10.9419 42.0386 9.2137 44.7274 6.15322 45.2489C2.85437 45.8089 2.72667 47.5444 2.99483 50.0109C3.03314 50.3743 3.04166 50.7505 2.99483 51.1095C2.85011 52.268 3.33536 52.6527 4.48038 52.6185C6.89386 52.5501 9.3116 52.5245 11.7208 52.627C13.0233 52.6826 13.8406 52.1996 14.7047 51.2591C20.732 44.7445 30.5179 44.7274 36.4729 51.2506C37.4221 52.2893 38.3458 52.6228 39.6738 52.6185C56.2021 52.5843 72.7304 52.58 89.263 52.6185C90.6081 52.6185 91.519 52.2466 92.4597 51.2249C97.7549 45.4669 106.532 44.4196 112.189 49.6048C115.177 52.3449 118.097 52.7809 121.604 52.5928C122.188 52.5629 122.788 52.5074 123.358 52.6014C125.457 52.9477 126.121 52.1739 126.019 50.0024C125.836 46.0397 125.972 46.0312 122.013 45.9029C117.82 45.7661 114.479 42.9277 114.041 39.1275C113.734 36.4986 114.645 35.4299 117.288 35.3957C119.629 35.3658 121.971 35.4 124.307 35.3786C124.788 35.3743 125.44 35.6265 125.712 35.1264C126.023 34.5493 125.533 34.0064 125.227 33.5319C124.699 32.7112 123.98 32.0443 123.013 31.8263C116.284 30.296 109.827 27.6799 102.697 27.7825C87.339 28.0047 71.9813 27.8508 56.6193 27.8508L56.6235 27.8637ZM99.1212 24.6234C92.7576 19.2159 86.9517 13.257 81.1755 7.29806C78.1107 4.13905 74.8502 2.67711 70.5 2.98916C68.6228 3.12595 68.2184 3.67739 68.2482 5.42147C68.3461 11.1367 68.3504 16.8606 68.2482 22.5759C68.2142 24.3712 68.6782 24.9526 70.5383 24.9355C79.5154 24.8415 88.4968 24.897 97.4739 24.8799C98.0145 24.8799 98.619 25.1065 99.1255 24.6234H99.1212ZM45.5096 14.0008C45.5096 10.9187 45.4713 7.8324 45.5309 4.75461C45.5521 3.56197 45.2201 3.03618 43.9389 3.04901C39.3333 3.10458 34.7277 3.1003 30.1263 3.04901C28.8749 3.03618 28.496 3.49785 28.5045 4.72469C28.5514 10.8888 28.5471 17.0572 28.5045 23.2213C28.496 24.4183 28.8153 24.9312 30.0965 24.9141C34.7021 24.8586 39.3077 24.8586 43.9091 24.9141C45.1605 24.927 45.5607 24.4824 45.5309 23.2513C45.4628 20.1692 45.5096 17.0871 45.5096 14.0051V14.0008ZM65.324 14.0008C65.324 10.9957 65.2729 7.99057 65.3453 4.98545C65.3793 3.66029 65.1282 3.00626 63.583 3.03618C59.1349 3.13022 54.6783 3.11313 50.2301 3.04473C48.7872 3.02336 48.353 3.54487 48.3657 4.9598C48.4253 10.97 48.4211 16.9803 48.3657 22.9905C48.353 24.3755 48.7276 24.9483 50.2046 24.9227C54.657 24.8457 59.1094 24.8372 63.5575 24.927C65.0643 24.9569 65.3836 24.3798 65.3495 23.0162C65.2644 20.0153 65.324 17.0059 65.324 14.0008ZM25.6611 13.9965C25.6611 10.9187 25.6271 7.83668 25.6782 4.75889C25.6994 3.57052 25.3589 3.00626 24.0734 3.05328C21.9579 3.13022 19.8381 3.08748 17.7226 3.07893C16.1775 3.07038 15.075 3.72441 14.4238 5.15644C11.6442 11.2906 8.87317 17.4248 6.05957 23.5419C5.54453 24.6619 5.86803 24.9141 6.97474 24.9099C12.67 24.8799 18.3654 24.8671 24.0607 24.9184C25.3291 24.9312 25.6994 24.4439 25.6782 23.2384C25.6228 20.1607 25.6611 17.0786 25.6611 14.0008V13.9965ZM37.2901 61.309C37.3114 54.6148 32.195 49.4253 25.5803 49.4296C19.2422 49.4381 14.1599 54.572 13.8661 60.6849C13.5426 67.3534 19.1145 73.1072 25.6228 73.0302C32.1439 72.9533 37.2731 67.8578 37.2944 61.3047L37.2901 61.309ZM114.99 61.4287C115.024 54.6789 109.993 49.468 103.412 49.4296C96.9546 49.3954 91.668 54.4865 91.6254 60.7875C91.5786 67.7339 96.529 72.9576 103.212 73.0174C109.737 73.073 114.96 67.9348 114.99 61.4287ZM64.4258 55.5723C63.1105 55.5723 61.7953 55.5723 60.48 55.5723C54.0525 55.5723 47.6251 55.5595 41.1934 55.5937C40.6315 55.5937 39.7887 55.1791 39.5376 56.1152C39.1119 57.7097 40.7082 59.7573 42.3469 59.7573C57.1045 59.7615 71.8578 59.7573 86.6154 59.7573C86.8325 59.7573 87.0538 59.7615 87.2709 59.753C89.7057 59.6461 88.9267 57.4532 89.246 56.2392C89.5312 55.1491 88.0797 55.6065 87.4327 55.6022C79.7623 55.5552 72.0919 55.5723 64.4216 55.5723H64.4258ZM121.451 38.3795C120.574 38.3795 119.698 38.3324 118.825 38.3965C118.229 38.4393 117.395 38.0503 117.118 38.901C116.901 39.5593 117.327 40.1748 117.701 40.722C119.076 42.7397 121.141 42.7952 123.316 42.9705C125.657 43.1586 126.134 42.278 126.023 40.1535C125.946 38.6488 125.431 38.2469 124.078 38.3666C123.209 38.4436 122.328 38.3795 121.451 38.3795ZM7.66005 55.5681V55.5766C6.57462 55.5766 5.48494 55.5766 4.39951 55.5766C3.68866 55.5766 3.32259 55.769 3.60778 56.6239C4.31012 58.7185 8.55819 60.6891 10.4311 59.753C10.8057 59.5649 10.8695 59.2357 11.0015 58.898C12.2188 55.7348 12.1124 55.5681 8.74973 55.5681C8.38793 55.5681 8.02612 55.5681 7.66005 55.5681ZM121.268 55.5681C120.545 55.5681 119.808 55.4996 119.093 55.5894C118.459 55.6706 117.199 55.1876 117.335 56.1152C117.518 57.3335 117.224 59.0947 118.748 59.6803C120.804 60.4669 123.831 59.1161 125.044 57.1924C125.823 55.957 125.487 55.5039 124.099 55.5638C123.158 55.6022 122.213 55.5723 121.268 55.5681ZM3.00335 40.2945C2.98632 42.0301 3.35381 42.8878 4.1058 42.8679C5.86803 42.8166 8.34962 40.6536 8.21341 39.1916C8.08996 37.8964 6.95771 38.3837 6.35753 38.4778C5.03799 38.683 2.60323 37.2338 3.00335 40.2945Z" fill="#004D40"/>
</svg>
