<svg width="94" height="54" viewBox="0 0 94 54" fill="none" xmlns="http://www.w3.org/2000/svg">
<path d="M93.9996 49.4414C93.9121 49.6339 93.8121 49.8214 93.7346 50.0164C92.9371 52.0714 90.8996 53.2939 88.8346 52.9589C86.6346 52.6014 85.0321 50.7939 85.0071 48.5289C84.9571 44.0589 84.3471 39.6714 82.7371 35.4964C77.3446 21.5039 67.3046 12.8714 52.5421 10.1114C42.6371 8.26141 33.3721 10.3489 24.8796 15.7889C24.4121 16.0889 23.9596 16.4139 23.4421 16.7664C23.6421 17.0039 23.7996 17.1864 23.9521 17.3739C25.3771 19.1389 25.4171 21.5589 23.8596 23.2089C21.5871 25.6164 19.2121 27.9264 16.8546 30.2539C16.1496 30.9489 15.3521 30.9064 14.6046 30.2289C14.2821 29.9364 13.9696 29.6264 13.6771 29.3014C13.4046 29.0014 13.1646 28.6714 12.8046 28.2239C11.5596 29.5014 10.4771 30.6539 9.34711 31.7589C8.67211 32.4189 7.76211 32.3889 7.17461 31.7789C6.61461 31.1989 6.62711 30.3464 7.21711 29.6689C7.42211 29.4339 7.65211 29.2189 7.87461 29.0014C8.78461 28.1089 9.69461 27.2189 10.5621 26.3714C9.22711 25.0339 7.97211 23.7789 6.65461 22.4614C5.66961 23.4514 4.64211 24.4889 3.60711 25.5164C2.73461 26.3814 1.82211 26.4689 1.15961 25.7664C0.532108 25.1014 0.644608 24.2314 1.48711 23.3864C2.50211 22.3714 3.53211 21.3689 4.77711 20.1464C4.11711 19.5814 3.47711 19.0939 2.90961 18.5339C1.99961 17.6339 2.01711 16.8664 2.92711 15.9514C5.04211 13.8239 7.15961 11.7014 9.28961 9.58891C11.3796 7.51391 14.0996 7.51641 16.1796 9.58391C16.3996 9.80391 16.5796 10.0639 16.8171 10.3539C17.1646 10.1239 17.4221 9.96391 17.6646 9.78891C25.0796 4.42391 33.3346 1.35641 42.4621 0.653906C42.7071 0.633906 42.9446 0.556406 43.1871 0.503906C45.1246 0.503906 47.0621 0.503906 48.9996 0.503906C50.1396 0.643906 51.2846 0.763906 52.4221 0.923906C61.3471 2.17641 69.3471 5.59891 76.2971 11.3314C85.4546 18.8864 91.1571 28.5214 93.2621 40.2339C93.5746 41.9789 93.7571 43.7464 93.9996 45.5039V49.4414ZM21.3021 14.5989C21.5071 14.4589 21.6596 14.3539 21.8146 14.2464C31.1671 7.72641 41.5296 5.08141 52.7371 7.11891C69.5346 10.1739 80.6446 20.0864 86.1396 36.2389C87.4571 40.1064 87.9471 44.1389 87.9996 48.2214C88.0146 49.3939 88.7296 50.1164 89.6871 49.9864C90.5371 49.8714 91.0021 49.2264 90.9946 48.1239C90.9496 42.1489 89.7696 36.3989 87.4096 30.9139C77.2946 7.40391 50.2596 -2.95859 27.0246 7.75641C24.2471 9.03641 21.6271 10.5914 19.1796 12.4589C19.9046 13.1889 20.5771 13.8664 21.3046 14.5989H21.3021ZM15.7821 27.0789C17.7046 25.1614 19.6371 23.2589 21.5371 21.3239C22.1821 20.6664 22.2021 19.8814 21.5646 19.2314C19.0046 16.6264 16.4196 14.0489 13.8221 11.4814C13.2121 10.8764 12.4196 10.7789 11.7971 11.3839C9.81461 13.3189 7.89211 15.3164 5.96961 17.2664C9.21461 20.5114 12.4571 23.7539 15.7796 27.0789H15.7821Z" fill="#004D40"/>
</svg>
