<svg width="34" height="51" viewBox="0 0 34 51" fill="none" xmlns="http://www.w3.org/2000/svg">
<path d="M21.5003 21.002C24.9278 21.002 28.2078 21.0095 31.4878 20.997C32.2428 20.9945 32.9303 21.0795 33.3253 21.8345C33.7028 22.5595 33.3728 23.147 32.9778 23.742C27.1553 32.4695 21.3353 41.202 15.5228 49.937C15.0578 50.6345 14.5228 51.1945 13.6128 50.937C12.6653 50.667 12.4903 49.907 12.4928 49.0145C12.5078 43.047 12.5003 37.077 12.5003 31.1095V30.0045C12.0828 30.0045 11.7478 30.0045 11.4153 30.0045C8.35284 30.0045 5.29034 30.0445 2.23034 29.967C1.70534 29.9545 0.987837 29.5645 0.737837 29.132C0.512837 28.7445 0.622838 27.932 0.900338 27.5145C6.78784 18.607 12.7228 9.72701 18.6428 0.839516C19.0678 0.202016 19.6253 -0.150485 20.3853 0.0695153C21.2253 0.312015 21.5078 0.957015 21.5053 1.80202C21.4953 7.83202 21.5003 13.8645 21.5003 19.8945C21.5003 20.232 21.5003 20.567 21.5003 21.0045V21.002ZM15.5003 44.222C15.5603 44.2395 15.6228 44.257 15.6828 44.2745C20.1578 37.5595 24.6328 30.8445 29.1953 23.9995C26.2228 23.9995 23.4753 23.9995 20.7278 23.9995C18.8953 23.9995 18.5003 23.5945 18.5003 21.7295C18.5003 17.0445 18.5003 12.3595 18.5003 7.67452V6.78202C18.4403 6.76452 18.3803 6.74452 18.3203 6.72702C13.8453 13.4395 9.37034 20.1545 4.80784 26.9995C7.78534 26.9995 10.5303 26.9995 13.2778 26.9995C15.0803 26.9995 15.5003 27.412 15.5003 29.182C15.5003 33.8995 15.5003 38.6145 15.5003 43.332V44.222Z" fill="#004D40"/>
</svg>
