<svg width="94" height="53" viewBox="0 0 94 53" fill="none" xmlns="http://www.w3.org/2000/svg">
<path d="M0 3.56509C0.5725 2.01009 1.47 0.752586 3.125 0.220086C6.0525 -0.719914 8.9525 1.40759 8.9925 4.56509C9.0475 9.03509 9.6675 13.4226 11.285 17.5901C16.6775 31.4926 26.675 40.1076 41.345 42.8726C51.6925 44.8226 61.3075 42.5326 70.03 36.6051C70.1325 36.5351 70.2375 36.4676 70.3375 36.3901C70.385 36.3526 70.4225 36.3001 70.5025 36.2126C70.4025 36.0776 70.3025 35.9276 70.1875 35.7926C68.5375 33.8401 68.5775 31.3551 70.3575 29.5326C72.54 27.3001 74.7625 25.1026 76.98 22.9026C77.855 22.0351 78.615 22.0351 79.5025 22.8751C80.07 23.4101 80.6225 23.9601 81.1825 24.5026C81.2025 24.5226 81.24 24.5251 81.345 24.5601C82.3525 23.5426 83.3775 22.4951 84.415 21.4626C85.245 20.6376 86.145 20.5451 86.795 21.1901C87.45 21.8426 87.37 22.7501 86.55 23.5726C85.5125 24.6101 84.455 25.6276 83.4575 26.6051C84.7925 27.9351 86.0675 29.2051 87.4025 30.5376C88.37 29.5501 89.3875 28.4926 90.425 27.4551C91.2475 26.6326 92.16 26.5476 92.805 27.2026C93.455 27.8601 93.365 28.7551 92.54 29.5851C91.5075 30.6251 90.46 31.6501 89.2525 32.8476C89.9325 33.4501 90.5925 33.9776 91.1825 34.5751C91.955 35.3576 91.9475 36.1651 91.165 36.9551C88.925 39.2201 86.6875 41.4901 84.4 43.7076C82.5625 45.4876 79.93 45.4426 78.0775 43.6826C77.7625 43.3826 77.4825 43.0451 77.14 42.6726C76.29 43.2601 75.51 43.8176 74.7125 44.3476C67.68 49.0226 59.965 51.7176 51.535 52.3526C51.2925 52.3701 51.0525 52.4526 50.8125 52.5026H45C43.83 52.3576 42.655 52.2326 41.4875 52.0651C31.9325 50.7001 23.49 46.8751 16.2775 40.4651C7.945 33.0601 2.7375 23.8526 0.75 12.8651C0.4275 11.0901 0.245 9.29009 0 7.50259C0 6.19009 0 4.87759 0 3.56509ZM72.72 38.4126C72.51 38.5501 72.325 38.6626 72.15 38.7851C62.34 45.6001 51.48 48.1676 39.8375 45.6301C22.94 41.9476 12.1125 31.4576 7.31 14.8276C6.3625 11.5451 6.04 8.15009 5.9975 4.73009C5.98 3.42009 4.96 2.66759 3.9075 3.14259C3.1775 3.47259 2.99 4.08759 2.9975 4.83509C3.0525 10.4551 4.12 15.8701 6.1825 21.0976C16.9425 48.3451 50.65 58.1476 74.3475 40.9101C74.5125 40.7901 74.66 40.6426 74.8375 40.4876C74.1225 39.7851 73.455 39.1326 72.72 38.4101V38.4126ZM78.2275 25.9176C76.29 27.8501 74.3775 29.7326 72.4975 31.6451C71.76 32.3951 71.7975 33.1526 72.5825 33.9451C75.065 36.4501 77.5575 38.9451 80.065 41.4251C80.86 42.2101 81.64 42.1951 82.445 41.4176C83.345 40.5526 84.21 39.6526 85.1 38.7751C86.1125 37.7776 87.1325 36.7901 88.1225 35.8226C84.7625 32.4576 81.5225 29.2126 78.2275 25.9126V25.9176Z" fill="#004D40"/>
</svg>
