<svg width="98" height="93" viewBox="0 0 98 93" fill="none" xmlns="http://www.w3.org/2000/svg">
<path d="M13.2735 77.6315C13.2123 77.4752 13.1511 77.3189 13.09 77.1625C12.8797 76.6321 12.6824 76.1309 12.5545 75.6245C12.2789 74.5391 12.0477 73.4587 11.8039 72.3155C11.7026 71.8417 11.6014 71.3679 11.4956 70.8887L11.3024 70.0175L10.43 70.2053C9.90606 70.3187 9.39505 70.4325 8.8932 70.5444C7.6847 70.8119 6.54228 71.0668 5.3932 71.2785C4.95022 71.3602 4.47227 71.3727 3.96729 71.3862C3.81738 71.3894 3.66628 71.3945 3.51824 71.3989L2.98013 71.0551C2.69108 70.4744 2.44679 69.7452 2.68141 69.2333C2.9445 68.6562 3.81171 68.3609 4.49343 68.2154C5.6765 67.963 6.85956 67.7105 8.01887 67.4663L10.4499 66.9508L8.96681 60.412L8.16453 60.5065L7.73671 60.5562C7.39588 60.5938 7.03364 60.6359 6.67279 60.6842C5.29616 60.8677 3.97399 60.5857 2.85466 59.8706C1.60596 59.0728 0.732952 57.7985 0.392853 56.2811C-0.271413 53.3164 1.27535 50.6309 4.15258 49.7517C4.51062 49.6418 4.86678 49.5306 5.23024 49.4163L6.48175 49.0278L6.32549 48.2558L6.26628 47.96C6.22875 47.7666 6.19557 47.5996 6.15746 47.4319C5.88359 46.22 5.60854 45.0099 5.33279 43.7967C4.56561 40.4145 3.77093 36.9184 3.01387 33.4749C2.91993 33.0475 2.89993 32.5788 2.87981 32.0813C2.87406 31.9291 2.86645 31.7758 2.85883 31.6224L3.16854 31.1376C3.30313 31.0881 3.43703 31.0356 3.56974 30.9849C4.04884 30.8012 4.49806 30.627 4.95197 30.5158C5.90731 30.2768 6.89799 30.0733 7.85691 29.8783C8.22751 29.8024 8.5981 29.7265 8.968 29.6476C9.91755 29.4466 10.2759 29.5635 10.5196 29.7192C10.7783 29.8845 11.0408 30.1929 11.3431 30.6908C12.511 32.6069 13.6728 34.5242 14.8353 36.4446L15.6434 37.779C16.5125 39.2123 17.3786 40.6462 18.26 42.1057L19.8726 44.7721L20.5568 44.5319C29.2444 41.4843 38.6713 38.4533 48.7357 36.9081L49.9794 36.7178L49.3634 35.6156C49.272 35.4529 49.1952 35.3127 49.1275 35.1913C48.996 34.9509 48.8961 34.7725 48.792 34.5966L31.3591 5.39519C31.0437 4.86803 30.7244 4.11163 30.9843 3.50647C31.2477 2.89576 32.028 2.61262 32.6375 2.48095C33.3895 2.32048 34.1434 2.1612 34.8961 2.00378C36.4425 1.6786 38.0408 1.34233 39.6097 0.981992C40.3027 0.822919 40.8144 0.881507 41.2719 1.17379C41.4782 1.30556 41.6858 1.49295 41.8862 1.73302C43.3027 3.41704 44.7624 5.10781 46.1758 6.74295C47.2021 7.93016 48.2614 9.15668 49.2939 10.3713C49.4948 10.6065 49.6824 10.7758 49.883 10.904C50.3461 11.1999 50.863 11.2669 51.4613 11.1073C52.6526 10.7924 53.8657 10.5591 54.7921 10.3902C55.24 10.309 55.6866 10.3911 56.0466 10.621C56.4065 10.851 56.6427 11.1921 56.7337 11.5994C56.9284 12.4559 56.3935 13.2684 55.4925 13.4926C55.2573 13.5508 54.9718 13.5637 54.6691 13.5788C54.5027 13.5871 54.3375 13.5936 54.1744 13.6093L52.6219 13.7456L53.5493 15.005C55.1268 17.1437 56.6459 18.8985 57.9238 20.3324C58.001 20.4182 58.0928 20.4977 58.1959 20.5636C58.614 20.8307 59.1716 20.8795 59.5417 20.8085C60.5218 20.6218 61.5085 20.408 62.4635 20.2026C62.9526 20.0983 63.4429 19.992 63.9308 19.8895C64.5441 19.7603 65.0986 19.8305 65.4942 20.0833C65.826 20.2953 66.0423 20.6262 66.1378 21.0677C66.3374 21.9951 65.752 22.7544 64.645 23.0034C64.1462 23.1146 63.6475 23.2258 63.1132 23.343L60.904 23.8336L63.1439 26.4397C64.7484 28.3089 66.2634 30.0742 67.8272 31.8418C67.905 31.9307 67.9961 32.0071 68.1011 32.0742C68.5511 32.3617 69.1865 32.4003 69.6183 32.3114C71.0205 32.0217 72.4413 31.7154 73.8162 31.4188C75.7812 30.9963 77.8146 30.5576 79.8166 30.1639C81.2265 29.887 82.6698 29.7149 84.1134 29.6497C87.6497 29.4912 90.8031 29.9608 93.7518 31.0814L95.5311 32.2182C95.5626 32.2722 95.604 32.3273 95.6515 32.381C98.2153 35.1785 98.2804 38.2215 95.8298 40.9497C93.1109 43.9779 89.4718 46.0744 84.703 47.3604C81.9922 48.0907 79.1701 48.6482 76.4385 49.1879C75.5412 49.365 74.6439 49.5421 73.7498 49.7265C72.7756 49.9248 72.2358 50.4267 71.9939 51.3508C71.5277 53.1425 71.0241 54.9598 70.5343 56.7182C70.3339 57.4369 70.1341 58.1587 69.9356 58.8786C69.8922 59.0333 69.8556 59.1897 69.8114 59.3829C69.7899 59.4786 69.7655 59.5828 69.7366 59.7025L69.4045 61.09L70.8049 60.7784C71.0794 60.7167 71.3416 60.6575 71.5946 60.6003C72.1221 60.4814 72.608 60.3697 73.0947 60.269C73.6976 60.1436 74.2516 60.2187 74.6585 60.4787C74.9922 60.6919 75.216 61.0277 75.3048 61.4466C75.5008 62.3795 74.9142 63.1407 73.8108 63.3841C73.2612 63.5046 72.711 63.622 72.1607 63.7394C71.2662 63.9287 70.343 64.1257 69.4324 64.336C69.3272 64.36 68.3982 64.595 68.176 65.3519C67.6897 67.0057 67.224 68.6935 66.7746 70.3266L66.315 71.9923L66.9495 73.2887L67.7 73.0231C67.8292 72.9779 67.9589 72.9279 68.0866 72.8766C68.3191 72.7855 68.5382 72.6988 68.7358 72.6582C69.286 72.5408 69.808 72.6164 70.2036 72.8691C70.5467 73.0883 70.7761 73.4277 70.8656 73.8497C71.058 74.7594 70.4913 75.5307 69.4511 75.7702L69.2378 75.8189C68.263 76.0429 67.2535 76.2759 66.2636 76.4408C65.1337 76.6308 64.8057 77.3879 64.657 77.939C64.1286 79.8942 63.5801 81.8809 63.0483 83.8C62.579 85.4934 62.1097 87.1867 61.649 88.883C61.4008 89.8004 60.9273 90.2482 60.0196 90.4291C58.4087 90.7521 56.78 91.1029 55.2051 91.4437C54.4843 91.6007 53.7648 91.7559 53.0433 91.9098C52.2118 92.0872 51.5541 92.0422 51.1416 91.7787C50.5229 91.3834 50.4725 90.4497 50.5409 89.7352C50.9262 85.6277 52.6158 67.664 52.6158 67.664C52.8826 64.8329 53.9195 53.7631 53.9195 53.7631L52.6622 54.1192C43.5138 56.7186 33.9921 57.683 24.7837 58.6156L23.0497 58.7923L22.9341 59.87C22.9107 60.0843 22.8907 60.2644 22.8738 60.4438L22.3874 65.2632C22.0644 68.4673 21.7426 71.6696 21.4177 74.8726C21.2707 76.3341 20.9964 76.6435 19.5799 76.9474C19.21 77.0263 18.8396 77.1101 18.4704 77.1921C17.5431 77.3996 16.5834 77.6123 15.6434 77.7778C15.1826 77.8585 14.6982 77.8852 14.185 77.9116C14.0407 77.9184 13.8982 77.9265 13.7546 77.9363L13.2747 77.6297L13.2735 77.6315ZM12.4885 60.02L15.6835 74.2313L16.3239 74.2992C16.9268 74.3639 17.4245 74.2337 17.8012 73.9169C18.4191 73.3919 18.4632 72.5212 18.4768 72.2354C18.5246 71.2473 18.6369 70.2326 18.7458 69.2522C18.7919 68.8412 18.836 68.4291 18.8771 68.0177C19.0586 66.2212 19.6562 60.2978 19.6562 60.2978L19.7669 59.1988L12.4873 60.0219L12.4885 60.02ZM74.6623 34.4501C74.5727 34.4788 74.4831 34.5076 74.3941 34.5393C74.2363 34.5922 74.0864 34.6449 73.9531 34.6718C68.4053 35.8588 62.8568 37.0428 57.3102 38.228C51.9042 39.3831 46.4982 40.5383 41.0922 41.6935C40.6428 41.7894 40.1902 41.878 39.7394 41.9678C38.5625 42.1981 37.3459 42.437 36.1696 42.811C28.3597 45.2989 20.4294 47.8636 12.7631 50.3417C10.2578 51.1511 7.75256 51.9605 5.24731 52.77C3.30173 53.3977 3.33385 54.8434 3.52663 55.6492C3.6905 56.3349 4.02448 56.8453 4.52133 57.1627C5.01819 57.4801 5.6134 57.5816 6.37289 57.4963C9.32127 57.1628 12.2685 56.8311 15.2176 56.5006C19.951 55.9683 24.6875 55.4354 29.4226 54.8964C30.4757 54.7772 31.5562 54.6728 32.6012 54.5745C35.1517 54.3307 37.7868 54.0784 40.3468 53.5593C49.1319 51.7725 58.0377 49.8545 66.652 48.0004C69.9491 47.2904 73.2463 46.5805 76.546 45.8748C76.7569 45.8297 76.9665 45.7786 77.1393 45.7354L77.3141 45.6933L78.1499 45.4925L75.5913 34.1656L74.6649 34.4544L74.6623 34.4501ZM57.1741 53.4585L53.8685 88.5809L55.0926 88.2766C55.3523 88.2132 55.5976 88.1432 55.8375 88.0777C56.3277 87.9427 56.7494 87.8239 57.1643 87.7738C58.5193 87.6077 58.9271 86.7297 59.1305 85.9816C60.9385 79.3621 62.798 72.6373 64.5974 66.1347L66.1434 60.5411C66.6452 58.7226 67.1481 56.9023 67.6487 55.0856L68.8036 50.9018L57.1723 53.4573L57.1741 53.4585ZM8.98505 33.3609C8.58382 33.1045 7.91968 32.9043 7.04434 33.4106L6.49069 33.7317L9.70858 47.9733L16.6407 45.727L16.1195 44.7948C16.0544 44.6776 15.997 44.5732 15.9422 44.4731C15.8249 44.26 15.7255 44.0767 15.6158 43.8971C15.067 42.9916 14.5151 42.0866 13.9663 41.181C12.6032 38.9423 11.192 36.626 9.84351 34.3314C9.57349 33.8697 9.30004 33.5621 8.98505 33.3609ZM40.0537 4.68402C39.7162 4.4684 39.3831 4.37807 39.0644 4.41413C38.3632 4.49504 37.6923 4.63181 36.9836 4.77825C36.723 4.83065 36.4583 4.88555 36.1848 4.93751L34.9748 5.17015L35.8448 6.66396C35.9876 6.91153 36.1078 7.11599 36.228 7.32045L45.663 23.1293L47.2491 25.7918C48.9828 28.7025 50.7775 31.712 52.5591 34.6636C52.7061 34.9087 52.9502 35.1506 53.2296 35.3291C53.5877 35.5579 53.9483 35.6424 54.2779 35.5768C56.6809 35.0928 59.0407 34.5813 61.5393 34.0385L64.8204 33.3288L63.6243 31.895C63.4702 31.7105 63.342 31.5557 63.2115 31.4046L61.6464 29.5813C59.8417 27.4799 58.0378 25.3816 56.232 23.2821L55.6358 22.5912C50.7184 16.8779 45.6337 10.9718 40.6182 5.17238C40.4592 4.98739 40.2562 4.81339 40.0518 4.68282L40.0537 4.68402ZM93.089 34.4124C92.8303 34.2471 92.5327 34.1012 92.2049 33.9778C88.5781 32.6168 84.6744 32.4208 79.9189 33.3636L79.0418 33.538L81.5417 44.6841L82.3482 44.5871C84.9154 44.2758 88.4588 42.767 91.1652 40.8328C92.0749 40.1817 92.808 39.5427 93.4038 38.8786C94.3745 37.7974 94.4754 36.8666 94.3901 36.2728C94.3154 35.7534 94.0295 35.0107 93.0921 34.4117L93.089 34.4124Z" fill="#004D40"/>
</svg>
