<svg width="149" height="66" viewBox="0 0 149 66" fill="none" xmlns="http://www.w3.org/2000/svg">
<path d="M40.2637 15.8825C40.2637 11.856 40.2596 8.08987 40.2637 4.31963C40.2678 1.79373 41.0573 1 43.581 1C64.2335 1 84.89 1 105.542 1C108.119 1 108.876 1.7896 108.876 4.45606C108.88 8.17256 108.876 11.8932 108.876 15.8784H110.692C121.99 15.8784 133.288 15.8784 144.585 15.8784C147.416 15.8784 148.14 16.6019 148.14 19.4254C148.14 31.9309 148.14 44.4322 148.14 56.9377C148.14 59.6703 147.391 60.4227 144.675 60.4227C133.427 60.4227 122.182 60.4227 110.934 60.4227H108.872C108.872 61.2123 108.892 61.9109 108.872 62.6054C108.807 64.4327 107.915 65.3174 106.091 65.3794C105.53 65.3959 104.966 65.3794 104.405 65.3794C84.4687 65.3794 64.528 65.3794 44.5914 65.3794C40.7341 65.3794 40.3864 65.0445 40.2556 61.2164C40.2474 61.018 40.2106 60.8195 40.1656 60.4185C39.5561 60.4185 38.963 60.4185 38.3699 60.4185C27.0722 60.4185 15.7745 60.4185 4.47684 60.4185C1.74854 60.4185 1 59.6703 1 56.9501C1 44.395 1 31.8399 1 19.2848C1 16.6515 1.76899 15.8825 4.38685 15.8784C15.6845 15.8784 26.9822 15.8784 38.2799 15.8784C38.8812 15.8784 39.4866 15.8784 40.2678 15.8784L40.2637 15.8825ZM84.3991 5.99392C84.3991 6.68017 84.3991 7.23826 84.3991 7.79222C84.3991 13.5261 84.4032 19.26 84.3991 24.994C84.3991 27.4 83.5606 28.2309 81.1555 28.235C76.7583 28.2433 72.3652 28.2433 67.968 28.235C65.5751 28.2309 64.753 27.3958 64.7489 24.9691C64.7407 19.2352 64.7489 13.5013 64.7489 7.76742C64.7489 7.17625 64.7489 6.58922 64.7489 6.05593H45.2663V60.3441H103.906V5.99392H84.4073H84.3991ZM5.99847 20.9219V55.3585H40.0388V20.9343H30.4386C30.4386 24.1134 30.455 27.1974 30.4304 30.2814C30.4141 32.2947 29.506 33.2124 27.5181 33.2331C25.1661 33.2579 22.8182 33.2414 20.4662 33.2414C15.8604 33.2414 15.6273 33.0057 15.6273 28.3467C15.6273 25.8869 15.6273 23.4313 15.6273 20.9261H5.99847V20.9219ZM133.517 20.9219C133.517 24.1217 133.533 27.1602 133.513 30.1987C133.5 32.3153 132.613 33.2124 130.522 33.229C127.761 33.2496 125.005 33.2372 122.244 33.2331C119.442 33.2331 118.713 32.489 118.709 29.6572C118.709 26.7799 118.709 23.9026 118.709 20.9426H109.105V55.3254H143.145V20.9178H133.517V20.9219ZM79.4089 23.2122V5.99392H69.7596V23.2122H79.4089ZM25.4688 20.8765H20.6748V28.1193H25.4688V20.8765ZM123.745 20.8475V28.1276H128.502V20.8475H123.745Z" fill="#004D40" stroke="#F0F5EF"/>
</svg>
