<svg width="35" height="44" viewBox="0 0 35 44" fill="none" xmlns="http://www.w3.org/2000/svg">
<path d="M29.631 9.55564L34.5384 17.9855L5.32171 35.1394L0.414375 26.7095L29.631 9.55564Z" fill="#E7EBE6"/>
<path d="M14.3534 3.34218C16.0372 6.23471 15.0841 9.94062 12.2245 11.6196C9.36495 13.2985 5.68177 12.3147 3.99793 9.42215C2.31408 6.52963 3.2672 2.82372 6.12678 1.14478C8.98636 -0.534157 12.6695 0.449653 14.3534 3.34218Z" fill="#E7EBE6"/>
<path d="M32.6467 34.7665C34.3305 37.659 33.3774 41.3649 30.5178 43.0439C27.6582 44.7228 23.975 43.739 22.2912 40.8465C20.6073 37.9539 21.5605 34.248 24.42 32.5691C27.2796 30.8902 30.9628 31.874 32.6467 34.7665Z" fill="#E7EBE6"/>
</svg>
