<svg width="102" height="149" viewBox="0 0 102 149" fill="none" xmlns="http://www.w3.org/2000/svg">
<path d="M102.003 41.3438C100.712 42.7144 99.4314 44.0983 98.1245 45.453C97.0647 46.5527 95.9703 47.6178 94.8892 48.6962C93.4708 50.112 93.1175 50.1891 91.2475 49.4267C91.2475 50.8425 91.2475 52.2264 91.2475 53.6103C91.2475 57.3291 91.2555 61.0478 91.2422 64.7666C91.2369 66.2408 90.2355 67.213 88.9684 67.0217C87.9245 66.8623 87.2684 66.0309 87.2658 64.7958C87.2552 60.4794 87.2631 56.163 87.2631 51.8466C87.2631 50.2528 87.2339 48.6591 87.2764 47.0653C87.2923 46.4092 87.1064 45.9736 86.5725 45.5592C75.5995 37.0167 64.6398 28.4556 53.6775 19.8972C52.8142 19.2252 51.9483 18.5558 51.0106 17.828C49.1566 19.273 47.3052 20.7127 45.4538 22.1577C35.4583 29.9591 25.4655 37.7605 15.4647 45.5539C14.9919 45.9231 14.7316 46.2844 14.7316 46.9431C14.7528 63.8422 14.7502 80.7439 14.7502 97.643C14.7502 97.9006 14.7502 98.1609 14.7502 98.4691H20.3283C20.3283 98.1344 20.3283 97.7864 20.3283 97.4358C20.3283 91.7913 20.3283 86.1467 20.3283 80.5022C20.3283 80.2047 20.3123 79.9019 20.3469 79.607C20.4637 78.5844 21.2872 77.83 22.2806 77.8087C23.3113 77.7875 24.1825 78.5631 24.2941 79.6283C24.3312 79.9895 24.31 80.3587 24.31 80.7227C24.31 86.2663 24.31 91.8125 24.31 97.3561C24.31 97.712 24.31 98.068 24.31 98.4717H87.2631V97.4225C87.2631 91.9453 87.2631 86.4655 87.2631 80.9883C87.2631 80.7227 87.2578 80.457 87.2631 80.1914C87.2977 78.8978 88.0866 78.0239 89.2261 78.008C90.4028 77.992 91.2183 78.8872 91.2422 80.2392C91.2528 80.8688 91.2422 81.5009 91.2422 82.1305C91.2422 87.5412 91.2422 92.952 91.2422 98.5195H92.2197C94.5758 98.5195 96.9372 98.5727 99.2906 98.4983C100.518 98.4611 101.413 98.8356 102 99.9141V102.501C68 102.501 34 102.501 0 102.501V99.9141C0.584375 98.833 1.47953 98.4611 2.70672 98.4983C5.02563 98.57 7.34984 98.5195 9.67141 98.5195C10.0194 98.5195 10.3673 98.5195 10.71 98.5195V49.4373C8.91172 50.197 8.53984 50.1173 7.11078 48.6856C6.00844 47.5833 4.89016 46.4942 3.80641 45.3759C2.52609 44.0478 1.26969 42.6905 0.00265625 41.3438C0.00265625 40.9453 0.00265625 40.5469 0.00265625 40.1484C0.504687 39.6358 0.95625 39.0567 1.51406 38.6184C13.1936 29.4809 24.8837 20.3541 36.5792 11.2352C41.1798 7.64656 45.7964 4.07922 50.405 0.503906C50.8034 0.503906 51.2019 0.503906 51.6003 0.503906C51.9483 0.750938 52.3042 0.987344 52.6389 1.25031C57.8159 5.29047 62.993 9.33328 68.17 13.3734C69.963 14.7706 71.7586 16.1652 73.7189 17.6898C73.7189 15.1 73.7136 12.7227 73.7189 10.348C73.7242 8.57891 74.4228 7.88031 76.1998 7.87766C79.7167 7.87234 83.2336 7.87234 86.7505 7.87766C88.5753 7.87766 89.25 8.56828 89.2527 10.425C89.2527 16.5291 89.2713 22.6358 89.2314 28.7398C89.2261 29.5686 89.4997 30.0547 90.1372 30.5434C93.585 33.1864 97.0089 35.8639 100.417 38.5573C101.001 39.0195 101.477 39.6172 102.005 40.1511V41.3464L102.003 41.3438ZM9.46422 45.1555C9.65547 45.0173 9.92641 44.8341 10.1814 44.6348C23.1811 34.488 36.1808 24.3411 49.1778 14.1916C50.7158 12.9909 51.2975 12.9909 52.8487 14.2048C65.3252 23.9453 77.7989 33.6858 90.2753 43.4263C91.0536 44.0345 91.8372 44.6348 92.4933 45.1422C93.9808 43.6627 95.3806 42.2708 96.8469 40.8125C81.6159 28.9231 66.3292 16.9886 51.0053 5.02484C35.6628 17.0019 20.3787 28.9364 5.1425 40.8311C6.61406 42.3053 8.01125 43.7025 9.46156 45.1555H9.46422ZM85.1992 26.6573V11.9072H77.7059C77.7059 14.7998 77.7006 17.6447 77.7192 20.4895C77.7192 20.6808 77.8786 20.9278 78.038 21.0527C80.3781 22.8988 82.7289 24.7289 85.1966 26.6573H85.1992Z" fill="#004D40"/>
<path d="M51.0112 86.168C44.838 86.168 38.6676 86.168 32.4945 86.168C30.5341 86.168 29.8887 85.5119 29.8887 83.525C29.8887 71.2133 29.8887 58.9016 29.8887 46.5898C29.8887 44.5578 30.5235 43.9336 32.5795 43.9336C44.8566 43.9336 57.1365 43.9336 69.4137 43.9336C71.5121 43.9336 72.1204 44.5498 72.1204 46.6748C72.1204 58.9202 72.1204 71.1655 72.1204 83.4108C72.1204 85.5809 71.5227 86.168 69.3287 86.168C63.2219 86.168 57.1179 86.168 51.0112 86.168ZM33.9421 47.9605V62.9789H48.9579V47.9605H33.9421ZM68.0669 63.0134V47.995H53.0485V63.0134H68.0669ZM48.942 82.1384V67.12H33.9262V82.1384H48.942ZM53.0432 82.1119H68.059V67.0934H53.0432V82.1119Z" fill="#004D40"/>
<path d="M24.3029 71.9457C24.3002 73.0507 23.3519 73.9831 22.2629 73.9486C21.203 73.914 20.3291 73.0082 20.3291 71.9404C20.3291 70.8168 21.2402 69.935 22.3691 69.9615C23.4529 69.9881 24.3082 70.862 24.3055 71.9457H24.3029Z" fill="#004D40"/>
<path d="M91.2374 72.9796C91.2614 74.0739 90.3396 75.0089 89.2426 75.0036C88.1828 74.9983 87.2903 74.1191 87.269 73.0592C87.2451 71.9649 88.1642 71.0299 89.2612 71.0352C90.321 71.0405 91.2135 71.9197 91.2374 72.9796Z" fill="#004D40"/>
</svg>
