<svg width="55" height="30" viewBox="0 0 55 30" fill="none" xmlns="http://www.w3.org/2000/svg">
<path d="M5.50239 16.6974C3.5202 17.5885 2.13307 18.7625 1.42142 19.4545C1.09708 19.7698 0.59584 19.7698 0.270166 19.4545C-0.0715902 19.1225 -0.0916935 18.5649 0.224599 18.2077C2.46143 15.6803 6.84261 10.833 17.5818 10.2922C30.523 9.64078 33.4219 19.6927 44.9478 17.3111C44.9478 17.3111 39.3215 17.779 28.5354 9.90556C19.9982 3.67266 10.1489 8.56483 9.96935 8.62367C10.0498 8.49619 15.2753 0.359375 25.5146 0.359375C36.9065 0.359375 41.8653 15.6299 54.9994 13.8087C54.9994 13.8087 46.6901 29.3594 32.2157 29.3594C22.6612 29.3594 17.2387 22.5086 12.4407 17.9205C10.5617 16.123 7.84242 15.6467 5.50239 16.6974Z" fill="#90F29A"/>
</svg>
