<svg width="93" height="85" viewBox="0 0 93 85" fill="none" xmlns="http://www.w3.org/2000/svg">
<path d="M28.8395 64.1555C27.925 66.7204 27.7826 68.9929 27.7907 70.2367C27.7942 70.8033 27.3593 71.2564 26.7918 71.2773C26.1951 71.2981 25.6737 70.8325 25.6252 70.2366C25.2815 66.0218 24.7013 57.8556 33.5307 47.6791C44.1705 35.416 55.772 41.5175 63.6199 29.0325C63.6199 29.0325 59.1611 34.5242 42.6853 37.4424C29.6438 39.7512 25.5199 52.899 25.4173 53.1124C25.3718 52.929 22.5508 41.1455 31.4352 31.89C41.3197 21.5926 59.4256 30.3601 69.1755 16.9076C69.1755 16.9076 76.0223 37.9116 63.4633 50.9953C55.1731 59.6317 44.2756 58.5891 35.9652 58.945C32.7101 59.0839 29.9201 61.1286 28.8395 64.1555Z" fill="#004D40"/>
</svg>
