<svg width="212" height="461" viewBox="0 0 212 461" fill="none" xmlns="http://www.w3.org/2000/svg">
<path d="M208.336 263.917C202.569 273.147 188.826 270.064 184.729 258.573C178.001 239.662 172.234 220.399 166.214 201.253C162.74 190.231 152.724 157.617 151.78 157.667C151.409 160.883 152.336 174.602 152.336 177.818C152.269 271.874 152.302 340.066 152.235 434.121C152.218 438.811 151.982 443.635 150.936 448.192C149.368 455.009 144.883 459.599 137.666 460.47C130.01 461.374 124.311 457.539 121.495 450.922C119.37 445.914 118.426 440.202 118.038 434.741C114.581 386.884 111.394 339.027 108.072 291.17C107.937 289.06 105.239 283.013 105.239 283.013C105.239 283.013 102.845 286.765 102.642 292.309C100.804 341.925 96.5718 388.66 93.0307 438.175C92.7272 442.547 92.0358 447.136 90.3496 451.14C87.7865 457.187 82.8289 460.956 75.831 460.604C68.4115 460.219 62.8132 456.517 60.7728 449.314C59.4407 444.573 58.9854 439.431 58.9854 434.473C58.8842 340.719 58.9011 272.795 58.8842 179.024V157.885C58.8842 157.885 52.5776 176.026 51.313 180.113C47.8561 191.386 44.3488 202.643 40.8751 213.899C37.1991 224.838 34.383 236.027 30.6902 246.948C29.7796 249.612 29.0545 252.292 28.2957 255.006C27.5369 257.719 26.4745 260.533 24.5016 262.627C22.7479 264.486 20.3703 265.659 17.959 266.53C14.8563 267.652 11.3995 268.289 8.24622 267.284C5.73372 266.48 3.60905 264.654 2.22633 262.409C-1.97243 255.659 0.759291 248.188 2.90082 241.27C4.65452 235.642 6.39135 230.014 8.12819 224.385C11.6019 213.129 15.0755 201.856 18.5661 190.599C22.0566 179.343 25.5808 168.086 29.1557 156.863C32.2246 147.198 35.3442 137.55 38.5143 127.935C47.755 99.9609 72.4079 84.0645 101.799 82.5737C140.499 80.6138 166.484 103.562 176.045 135.489C187.174 172.626 199.247 209.477 210.208 246.664C211.742 251.907 211.186 259.428 208.387 263.9L208.336 263.917Z" fill="#004D40"/>
<path d="M141.729 35.3105C141.847 54.8754 125.861 71.0901 106.166 71.4083C86.0995 71.7266 70.0296 55.6292 70.0802 35.277C70.1476 15.0422 85.3407 0.0335151 105.795 1.36721e-05C125.946 -0.016737 141.611 15.3604 141.729 35.3105Z" fill="#004D40"/>
</svg>
