<svg width="94" height="89" viewBox="0 0 94 89" fill="none" xmlns="http://www.w3.org/2000/svg">
<path d="M0.518555 55.9223C1.11606 54.5537 2.20747 53.9074 3.59763 53.5426C5.72021 52.9844 7.80665 52.2867 9.91478 51.6697C11.7723 51.1238 13.177 51.9072 13.7672 53.7923C13.9576 54.397 14.1407 55.0066 14.3551 55.6995C16.6608 54.9307 18.9014 54.1547 21.1613 53.4349C23.6839 52.6319 26.1968 51.7897 28.7578 51.136C31.4105 50.4554 34.0197 50.8667 36.5182 51.9733C42.5534 54.6467 48.5863 57.3226 54.6119 60.0181C56.9465 61.061 58.2451 62.9461 58.6788 65.5902C59.0257 65.4286 59.3148 65.3062 59.5943 65.1642C66.5861 61.6094 73.5754 58.0546 80.5648 54.4974C82.9741 53.2708 85.299 53.3272 87.3807 55.1462C89.5273 57.0239 90.3031 59.4428 89.5972 62.2533C89.137 64.0895 87.8794 65.294 86.2676 66.1533C81.449 68.7239 76.6304 71.297 71.8118 73.8676C66.0609 76.9352 60.3267 80.037 54.5469 83.0483C51.8027 84.4781 48.9188 85.7683 45.753 85.2468C43.428 84.8624 41.1392 84.1206 38.8985 83.347C34.6293 81.8732 30.413 80.2476 26.1582 78.7346C25.6619 78.5583 25.0451 78.5828 24.5151 78.6856C23.4887 78.8864 22.484 79.2095 21.3637 79.5131C21.5565 80.2158 21.7372 80.8768 21.9155 81.5402C22.3973 83.3348 21.6432 84.789 19.8916 85.3423C17.5089 86.0914 15.1164 86.8112 12.7216 87.5212C10.7966 88.0916 9.39438 87.318 8.81856 85.3643C6.16834 76.3819 3.53258 67.3945 0.887176 58.4096C0.783576 58.0644 0.641428 57.7315 0.518555 57.3912C0.518555 56.9015 0.518555 56.4119 0.518555 55.9223ZM20.6048 77.0527C21.9275 76.6952 23.1851 76.399 24.4115 76.0073C25.1463 75.7723 25.7944 75.8359 26.5051 76.0979C31.3045 77.8753 36.1447 79.5449 40.9151 81.4031C44.9699 82.9822 48.873 83.2148 52.829 81.0873C63.5913 75.2973 74.3946 69.5808 85.1713 63.8177C87.2987 62.6793 87.9227 60.5543 86.8241 58.4586C85.7062 56.3238 83.8342 55.7215 81.6562 56.8281C74.0428 60.6913 66.4343 64.562 58.833 68.4448C58.5391 68.5941 58.2572 68.8855 58.1054 69.1817C56.2406 72.8148 52.6339 74.1369 48.9453 72.5162C44.7796 70.6849 40.6139 68.8537 36.4483 67.0224C35.3183 66.5254 34.1787 66.0431 33.0632 65.5143C32.3308 65.1667 32.0465 64.42 32.379 63.7736C32.7476 63.0588 33.3499 62.9168 34.0679 63.1812C34.3209 63.2742 34.569 63.3893 34.8172 63.4994C39.9201 65.7444 45.0157 68.0066 50.1282 70.2295C52.4267 71.2284 54.8818 70.2565 55.8117 68.0555C56.749 65.835 55.778 63.3574 53.5085 62.3414C47.5407 59.668 41.5584 57.0215 35.5833 54.3603C33.7186 53.5304 31.7694 53.1191 29.7721 53.5646C27.8399 53.9955 25.939 54.5831 24.0501 55.1853C21.0746 56.1352 18.1184 57.1561 15.0683 58.177C16.9258 64.5032 18.7593 70.751 20.6096 77.0527H20.6048ZM19.5568 82.5366C19.4797 82.2453 19.4459 82.0984 19.4026 81.9515C16.7379 72.8858 14.0684 63.8201 11.4206 54.7496C11.2375 54.1228 10.9869 54.0004 10.387 54.1914C8.20901 54.8818 6.01896 55.5428 3.8241 56.172C3.15914 56.3629 2.98567 56.62 3.2025 57.3349C4.59025 61.9473 5.92982 66.5744 7.28625 71.1941C8.57522 75.5813 9.87142 79.966 11.158 84.3532C11.2905 84.8037 11.3459 85.2786 12.0253 85.0681C14.3527 84.3459 16.6873 83.6506 19.0123 82.9259C19.2267 82.8598 19.3977 82.6517 19.5568 82.5366Z" fill="#004D40" stroke="#004D40"/>
<path d="M93.0346 13.5C92.919 13.9701 92.8058 14.4401 92.6901 14.9077C91.5818 19.4051 87.8595 22.7346 83.3204 23.2512C82.7518 23.3173 82.4241 23.5229 82.1495 24.0542C79.4149 29.3595 76.6563 34.6525 73.888 39.9406C73.6302 40.4351 73.5796 40.8072 73.8591 41.3556C77.8152 49.0675 72.1268 58.1062 63.5714 57.7415C63.3305 57.7317 63.0896 57.7096 62.8535 57.6705C61.5717 57.4624 61.1597 56.6814 61.7524 55.516C62.7186 53.6162 63.7136 51.7311 64.6942 49.8387C65.0315 49.1899 64.6701 47.2876 64.1208 46.8225C64.0581 46.7686 63.969 46.7368 63.8871 46.7197C62.9763 46.5262 61.4946 47.2656 61.0465 48.1298C60.1358 49.8876 59.2275 51.6454 58.3096 53.4008C57.5506 54.8501 56.6327 54.9505 55.6232 53.6407C53.0477 50.2965 52.3707 46.5679 53.8644 42.5993C55.3678 38.6014 58.3071 36.212 62.4824 35.5363C63.3522 35.3943 63.822 35.0515 64.222 34.2705C66.8722 29.0926 69.5682 23.9391 72.2666 18.7881C72.5292 18.2887 72.5653 17.9215 72.2955 17.3731C70.3584 13.4388 70.5054 9.54372 72.9388 5.89835C75.3529 2.2799 78.8439 0.737537 83.1204 1.03622C84.5612 1.13659 85.0286 1.99836 84.366 3.29101C83.4649 5.05372 82.5928 6.83356 81.6098 8.54975C81.1496 9.35276 81.0629 10.0358 81.5231 10.8266C81.7351 11.1914 81.87 11.6002 82.0748 12.0629C82.8458 11.9185 83.6191 11.8156 84.3612 11.6051C84.5901 11.539 84.7852 11.2011 84.9177 10.949C85.8983 9.0908 86.8596 7.22282 87.8306 5.35974C88.6088 3.87123 89.5219 3.79534 90.5723 5.12471C91.7625 6.63281 92.5335 8.33675 92.8636 10.2415C92.8925 10.4153 92.9744 10.5793 93.0322 10.7482V13.5025L93.0346 13.5ZM64.8315 55.1096C71.2547 54.4853 74.6518 47.4272 71.2884 41.9677C70.7704 41.1255 70.7487 40.4572 71.1993 39.6003C74.2855 33.7246 77.3478 27.8342 80.3931 21.9341C80.7834 21.18 81.2677 20.8103 82.1446 20.7785C86.5127 20.6267 89.7701 17.6742 90.4254 13.2944C90.7025 11.4337 90.3483 9.67347 89.3797 7.90832C88.4522 9.68816 87.633 11.3554 86.7127 12.959C86.4549 13.407 85.9465 13.8526 85.4671 13.9945C84.2889 14.3422 83.0578 14.5062 81.8483 14.7535C80.94 14.9396 80.3497 14.609 80.0052 13.7203C79.598 12.6701 79.1716 11.6222 78.6849 10.6087C78.3307 9.87178 78.3838 9.23769 78.7692 8.53261C79.6414 6.93393 80.4606 5.30588 81.3327 3.62886C81.087 3.62886 80.9376 3.60928 80.793 3.63131C74.6903 4.61794 71.592 11.4607 74.8782 16.7659C75.3986 17.6056 75.4083 18.2838 74.9602 19.1358C71.8714 25.0115 68.8092 30.9018 65.7639 36.802C65.3495 37.605 64.817 37.9355 63.9184 37.9502C60.0563 38.0187 56.7315 40.7999 55.8738 44.6313C55.3943 46.7711 55.6786 48.8055 56.7917 50.813C57.7 49.0724 58.524 47.4076 59.4347 45.7942C59.6804 45.3609 60.1334 44.8908 60.5791 44.7635C61.8488 44.4061 63.1667 44.2151 64.4653 43.963C65.2628 43.8063 65.7976 44.1221 66.1108 44.886C66.5614 45.9852 67.0119 47.0869 67.5058 48.1665C67.8287 48.8692 67.7805 49.4837 67.4094 50.1618C66.5373 51.7605 65.7229 53.3934 64.8339 55.1096H64.8315Z" fill="#004D40" stroke="#004D40"/>
<path d="M52.8161 10.8159C52.6547 11.1905 52.5366 11.5332 52.3655 11.849C51.7969 12.892 50.8164 13.8933 50.7393 14.9656C50.6622 16.0281 51.4693 17.1665 51.9391 18.2462C52.0499 18.5008 52.339 18.7628 52.6016 18.8485C53.6015 19.1741 54.6182 19.4532 55.6398 19.7053C56.4156 19.8963 56.8805 20.3468 56.8902 21.1596C56.9119 23.0177 56.9143 24.8784 56.8829 26.7366C56.8709 27.4563 56.4565 27.9141 55.7554 28.0978C54.7387 28.3671 53.7099 28.607 52.7173 28.9522C52.3872 29.0673 52.0547 29.4124 51.8885 29.7405C51.5584 30.3868 51.438 31.1556 51.0549 31.7603C50.5465 32.5633 50.6863 33.19 51.1705 33.9098C51.6427 34.6149 52.0138 35.391 52.4499 36.123C52.8209 36.7473 52.8546 37.3691 52.3511 37.8955C51.0356 39.2738 49.6985 40.6301 48.342 41.9668C47.8553 42.4467 47.2651 42.4565 46.6772 42.1015C46.6001 42.055 46.523 42.006 46.4435 41.9619C45.4244 41.3744 44.4293 40.3853 43.3765 40.3143C42.3284 40.2433 41.2105 41.0708 40.1456 41.558C39.8951 41.673 39.6493 41.9791 39.565 42.2508C39.259 43.2399 39.0133 44.251 38.7651 45.2572C38.5675 46.0627 38.1242 46.5719 37.2713 46.5768C35.4716 46.5866 33.6743 46.5915 31.8745 46.5694C31.1228 46.5597 30.641 46.1484 30.482 45.3821C30.4627 45.2939 30.4241 45.2082 30.4 45.1201C30.0748 43.9792 30.0459 42.5715 29.3448 41.7734C28.6413 40.9729 27.2776 40.7574 26.1838 40.3388C25.9549 40.2506 25.6031 40.3167 25.3767 40.4392C24.4226 40.9582 23.4926 41.5213 22.5602 42.0794C21.941 42.4491 21.3339 42.4516 20.8159 41.9399C19.4836 40.6228 18.1657 39.2885 16.8719 37.9322C16.3394 37.374 16.3876 36.7326 16.7731 36.0789C17.3152 35.1633 17.8621 34.2452 18.3391 33.2929C18.4741 33.0235 18.4668 32.6025 18.3656 32.3038C18.1319 31.6134 17.6959 30.9817 17.5368 30.2791C17.3152 29.29 16.7562 28.8861 15.8311 28.7294C15.0336 28.5947 14.2626 28.3108 13.4772 28.11C12.7809 27.9337 12.3304 27.4882 12.3135 26.7733C12.2725 24.8833 12.2677 22.9933 12.3087 21.1033C12.3256 20.359 12.7665 19.8914 13.5206 19.7127C14.5156 19.4776 15.5082 19.2206 16.4719 18.8827C16.802 18.7677 17.1345 18.4274 17.3007 18.1042C17.6573 17.4016 17.8356 16.6035 18.2187 15.918C18.5969 15.2398 18.5439 14.7159 18.1223 14.0916C17.6139 13.3376 17.2236 12.5027 16.7562 11.7193C16.3611 11.0558 16.3732 10.4168 16.896 9.86845C18.1705 8.53418 19.4643 7.21705 20.7773 5.92195C21.317 5.39069 21.9483 5.3809 22.5988 5.77995C23.4757 6.31366 24.3455 6.87185 25.2634 7.31743C25.5983 7.48145 26.1019 7.46432 26.4705 7.34436C27.2969 7.07505 28.1064 6.72986 28.8822 6.3308C29.2002 6.16677 29.5303 5.82157 29.6435 5.48617C29.9784 4.50689 30.229 3.49823 30.4675 2.48712C30.6362 1.7698 31.0433 1.29485 31.7492 1.27771C33.6381 1.2312 35.527 1.2312 37.4159 1.27282C38.1146 1.2875 38.5507 1.74042 38.7265 2.45775C38.9795 3.49578 39.2325 4.53627 39.565 5.54738C39.6686 5.86075 39.9914 6.16187 40.2878 6.32835C40.7576 6.59031 41.3479 6.64417 41.7839 6.9453C42.9091 7.71893 43.9234 7.64304 44.9401 6.76658C45.1883 6.55359 45.5087 6.42628 45.7954 6.25735C47.571 5.21197 47.7036 5.1777 49.2431 6.605C50.3273 7.61121 51.2982 8.74718 52.2884 9.85131C52.5197 10.1084 52.633 10.4756 52.8137 10.8159H52.8161ZM21.9073 8.35546C21.7892 8.43136 21.6471 8.49011 21.5459 8.59294C20.8785 9.25395 20.1919 9.90028 19.5799 10.6127C19.433 10.7816 19.4402 11.2345 19.5558 11.4647C20.0088 12.3607 20.5195 13.2274 21.0327 14.0892C21.3941 14.6963 21.3748 15.2594 21.0833 15.9082C20.5003 17.2082 19.9678 18.5375 19.4667 19.8718C19.2354 20.4888 18.9246 20.9466 18.2548 21.0861C17.8741 21.1669 17.5007 21.2967 17.1249 21.397C14.4385 22.1193 14.3325 22.2808 14.6722 25.1159C14.677 25.1452 14.6674 25.1868 14.6842 25.2064C14.889 25.4562 15.0529 25.8381 15.3131 25.9287C16.2214 26.2445 17.1562 26.4893 18.0934 26.6998C18.8595 26.8712 19.2619 27.3143 19.4932 28.0659C19.8064 29.0819 20.0714 30.1665 20.6328 31.0405C21.4664 32.3405 21.3242 33.3859 20.5509 34.6467C19.0137 37.1512 19.0716 37.1879 21.3459 39.0804C21.37 39.1 21.3893 39.1343 21.4158 39.1367C21.729 39.1685 22.1 39.3179 22.3458 39.2004C23.1047 38.8356 23.8444 38.412 24.5358 37.9297C25.408 37.3201 26.1814 37.2981 27.1114 37.8685C27.9498 38.3827 28.8846 38.8405 29.8363 39.0412C31.2385 39.3375 31.7878 40.1601 32.101 41.4894C32.7828 44.3783 32.8407 44.3636 35.7583 44.1678C35.7872 44.1678 35.8282 44.1776 35.8474 44.1604C36.0956 43.9621 36.4763 43.8103 36.5606 43.5533C36.8786 42.6009 37.1268 41.6216 37.346 40.6399C37.5123 39.8956 37.9411 39.5113 38.6398 39.2787C39.6662 38.9384 40.7576 38.6618 41.649 38.084C42.9018 37.2736 43.8945 37.4034 45.1088 38.1746C47.6241 39.7732 47.6963 39.7169 49.5322 37.3299C49.7057 37.1022 49.7322 36.5906 49.6045 36.3213C49.1877 35.4424 48.689 34.6026 48.1782 33.7727C47.7831 33.1313 47.7999 32.5559 48.1445 31.8827C48.6408 30.9107 49.2094 29.9241 49.4407 28.8738C49.7635 27.4049 50.5345 26.7708 51.9463 26.4428C54.7531 25.7916 54.7194 25.7132 54.5411 22.7656C54.5074 22.2025 54.2978 21.965 53.7726 21.85C52.8932 21.6565 52.0355 21.3603 51.1537 21.1645C50.3176 20.9784 49.9008 20.4741 49.6599 19.6564C49.3587 18.6379 49.0696 17.5632 48.5107 16.6867C47.7108 15.4357 47.8843 14.4466 48.6119 13.2519C50.161 10.7033 50.0984 10.6813 47.8361 8.73004C47.4313 8.38239 47.1591 8.39219 46.7447 8.66149C45.9327 9.1854 45.0774 9.63832 44.2535 10.1451C43.6511 10.5148 43.0946 10.4658 42.4609 10.1745C41.1792 9.58201 39.8758 9.04096 38.5579 8.53663C37.9411 8.29915 37.5195 7.9613 37.3725 7.29294C37.2882 6.90613 37.1677 6.52666 37.0641 6.14474C36.3462 3.45906 36.1221 3.30727 33.402 3.6794C33.3731 3.68429 33.3321 3.6794 33.3129 3.69409C33.0744 3.90463 32.7154 4.07601 32.6262 4.33796C32.301 5.31969 32.142 6.36508 31.7613 7.32232C31.5758 7.79238 31.1084 8.24529 30.6554 8.48522C29.9736 8.85 29.0725 8.85734 28.475 9.30537C26.4536 10.8233 24.6563 10.3556 22.8662 8.92834C22.5867 8.70556 22.2446 8.55866 21.9001 8.35791L21.9073 8.35546Z" fill="#004D40" stroke="#004D40"/>
<path d="M34.5896 36.8242C27.6556 36.8339 21.9191 31.0513 21.883 24.0127C21.8468 16.8689 27.5785 10.9858 34.5703 10.9883C41.6127 10.9883 47.3179 16.793 47.3106 23.9491C47.3034 31.0464 41.603 36.8144 34.5896 36.8242ZM34.6088 34.2486C40.208 34.2486 44.776 29.6191 44.7809 23.9319C44.7881 18.2399 40.1984 13.5467 34.6474 13.5613C28.988 13.5785 24.4416 18.1909 24.4151 23.9393C24.3886 29.5775 29.0024 34.2438 34.6064 34.2462L34.6088 34.2486Z" fill="#004D40" stroke="#004D40"/>
</svg>
