<svg width="30" height="26" viewBox="0 0 30 26" fill="none" xmlns="http://www.w3.org/2000/svg">
<path d="M2.62222 21.4385C1.8508 22.7328 1.52987 23.9512 1.40091 24.6272C1.34207 24.9352 1.05739 25.1346 0.747076 25.0851C0.420941 25.0324 0.187787 24.7237 0.225354 24.395C0.490673 22.0701 1.05125 17.5749 6.93537 12.9971C14.0261 7.48073 19.6698 12.0368 25.2687 6.10061C25.2687 6.10061 22.2594 8.60376 13.0026 8.4215C5.67532 8.27663 2.02704 14.9719 1.94845 15.0767C1.94342 14.9723 1.67539 8.27308 7.49065 4.20119C13.9605 -0.329055 22.8495 6.37165 29.5846 0.114181C29.5846 0.114181 31.0495 12.2504 22.829 18.0065C17.4027 21.806 11.5987 20.0717 7.04912 19.3739C5.26718 19.1003 3.53336 19.9112 2.62222 21.4385Z" fill="#90F29A"/>
</svg>
