<svg width="18" height="17" viewBox="0 0 18 17" fill="none" xmlns="http://www.w3.org/2000/svg">
<path d="M15.3438 9.37527V14.8125C15.3438 14.9278 15.2392 15.2613 15.1933 15.3812C14.4759 17.2553 12.4386 16.4798 10.9457 16.6408C10.8233 16.6658 10.5645 16.4529 10.5645 16.3383V11.5187L10.5299 11.4824H7.82849L7.79385 11.5187V16.3383C7.79385 16.4529 7.53503 16.6658 7.41266 16.6408C5.87588 16.4856 3.77113 17.2713 3.11934 15.2596C2.91501 14.6287 3.01913 13.8706 3.01544 13.2131C3.00898 12.0471 2.97573 10.8703 3.01544 9.7032C3.01913 9.59421 3.01082 9.48401 3.01452 9.37527H1.87163C1.53108 9.37527 1.17805 8.9788 1.07485 8.66104C0.867741 8.02286 1.11133 7.64286 1.54885 7.24445C3.82654 5.17248 6.2804 3.30008 8.56824 1.23877C8.92404 0.920288 9.43453 0.92053 9.79009 1.23877C12.0782 3.30008 14.5318 5.17272 16.8095 7.24469C17.2472 7.64286 17.4906 8.0231 17.2835 8.66128C17.1803 8.97904 16.8273 9.37551 16.4867 9.37551L15.3438 9.37527ZM11.3726 15.7934H13.6237C14.0539 15.7934 14.5052 15.1637 14.5329 14.737C14.6068 12.7563 14.5133 10.7601 14.5807 8.78068C14.6371 8.63488 14.7516 8.55932 14.8957 8.52977L16.4128 8.52275C16.5689 8.43144 16.5894 8.19215 16.4756 8.05507C14.1333 6.11389 11.8824 4.04604 9.53658 2.11019C9.47793 2.06175 9.2362 1.84668 9.1891 1.84256C9.16278 1.84014 9.14038 1.8491 9.11983 1.86557L1.88295 8.05507C1.76796 8.20257 1.79359 8.41909 1.94575 8.52275L3.4629 8.52977C3.69471 8.57385 3.80438 8.74048 3.81407 8.97977C3.88657 10.7684 3.70602 12.6597 3.79861 14.4504C3.82562 14.9719 4.13593 15.7934 4.73485 15.7934H6.98598V11.0585C6.98598 10.9251 7.11251 10.7403 7.23049 10.6855C7.3898 10.6117 7.92453 10.6618 8.12979 10.6599C9.02817 10.6521 9.93186 10.6432 10.8305 10.633C11.0112 10.631 11.2149 10.6802 11.3082 10.8597C11.3264 10.8948 11.3726 11.0287 11.3726 11.0585V15.7934Z" fill="#004D40" stroke="#004D40" stroke-width="0.358098"/>
</svg>
