<svg width="17" height="17" viewBox="0 0 17 17" fill="none" xmlns="http://www.w3.org/2000/svg">
<g clip-path="url(#clip0_472_20390)">
<path d="M7.97593 0.104176C10.2459 0.273282 12.9502 -0.188034 15.1712 0.0931614C16.109 0.21173 16.9228 1.09225 16.9991 2.12502L16.9967 14.9557C16.8727 16.0384 16.0536 16.8411 15.0609 16.9351C12.8356 17.1443 10.3342 16.7744 8.07973 16.9318C7.18905 16.8612 6.29776 16.0047 6.19933 15.0218C6.11999 14.2268 6.11223 12.1133 6.19814 11.3267C6.28404 10.5401 7.42648 10.4151 7.67824 11.212C7.79755 12.2992 7.55892 13.6346 7.69614 14.6913C7.72776 14.9363 7.83335 15.119 8.04573 15.2187L15 15.2492C15.2255 15.2421 15.4104 15.0645 15.4427 14.8229L15.4015 2.04663C15.3216 1.88011 15.1748 1.7745 15 1.76997C12.8285 1.93389 10.395 1.5568 8.25453 1.76802C7.90732 1.80236 7.73133 2.00192 7.68898 2.38484C7.57205 3.44159 7.7892 4.72446 7.67764 5.80648C7.37041 6.57296 6.45645 6.55417 6.20231 5.7514C6.3783 3.72861 5.41125 0.622508 7.97593 0.104176Z" fill="#757575"/>
<path d="M2.91904 7.66672H13.5082C13.8328 7.66672 14.1472 8.2032 14.137 8.53947C14.1275 8.84463 13.791 9.3513 13.5082 9.3513H2.91904L4.91936 11.5523C5.51892 12.3375 4.63062 13.3651 3.87237 12.7542L0 8.53234L3.84254 4.29627C4.59184 3.63475 5.52727 4.64161 4.91936 5.46576L2.91904 7.66672Z" fill="#757575"/>
</g>
<defs>
<clipPath id="clip0_472_20390">
<rect width="17" height="17" fill="white"/>
</clipPath>
</defs>
</svg>
