<svg width="17" height="19" viewBox="0 0 17 19" fill="none" xmlns="http://www.w3.org/2000/svg">
<path d="M13.416 1.36426C13.6697 1.43546 13.8612 1.62682 13.9219 1.89062L13.9404 2.0127C13.9696 2.42042 13.9551 2.84955 13.9414 3.30273C13.9279 3.74844 13.915 4.21784 13.9521 4.67285L13.957 4.73633L13.9844 4.79492C14.0179 4.86707 14.0658 4.91465 14.1016 4.94336C14.1141 4.95343 14.1275 4.96046 14.1387 4.96777C14.7332 5.73711 15.2421 6.53661 15.833 7.35547C15.9228 7.53717 15.9865 7.83088 15.998 8.16016C16.0068 8.41152 15.9848 8.65066 15.9414 8.83789L15.8916 9.00684C15.7195 9.45559 15.2475 9.77922 14.832 9.75781L14.4561 9.73828V10.1152L14.457 17.0898C14.4462 17.4572 14.2033 17.738 13.9111 17.79H2.4502C2.1809 17.7489 1.95538 17.5192 1.89551 17.1875L1.87988 17.0361L1.88184 10.1152V9.74609L1.5127 9.75781C1.12177 9.76941 0.723676 9.52183 0.518555 9.14062L0.442383 8.96973C0.378261 8.78645 0.34383 8.45987 0.363281 8.10742C0.382699 7.75639 0.45209 7.45577 0.540039 7.2959C1.14925 6.45653 1.69218 5.62957 2.31641 4.84668L2.38574 4.75977L2.39355 4.64941C2.42572 4.20043 2.40833 3.73287 2.39355 3.29102C2.38227 2.95335 2.37226 2.62963 2.38184 2.32129L2.39844 2.01855C2.42266 1.72443 2.61225 1.48001 2.85742 1.38574C6.36735 1.31423 9.8903 1.35848 13.416 1.36426ZM11.2334 4.93848H4.9248L4.82324 5.125L4.80957 5.14844L4.78125 5.11328C4.71592 5.03202 4.62968 4.97619 4.53223 4.95117C4.44419 4.92863 4.3667 4.93615 4.32031 4.94336C4.2776 4.95001 4.22993 4.96216 4.21875 4.96484C4.21568 4.96558 4.21297 4.96536 4.21094 4.96582C4.06392 4.97052 3.91625 4.96322 3.74805 4.9541C3.66524 4.94961 3.57711 4.94544 3.48633 4.94336L3.20703 4.94727C3.10996 4.95293 2.95129 4.95295 2.81934 4.99219C2.69279 5.02985 2.59194 5.09598 2.5 5.18164L2.41016 5.27344C2.11161 5.6031 1.84631 6.00796 1.59961 6.3877C1.34605 6.77798 1.11128 7.14303 0.857422 7.44043L0.834961 7.4668L0.818359 7.49707C0.761409 7.59754 0.735958 7.71956 0.72168 7.80664C0.705404 7.90599 0.695682 8.01622 0.69043 8.12109C0.685336 8.22283 0.683147 8.32965 0.685547 8.42773L0.704102 8.68262H0.705078C0.733705 8.87421 0.84504 9.0352 0.954102 9.14258C1.03508 9.22231 1.14619 9.3037 1.27637 9.34961L1.41211 9.38184L1.41309 9.38281C1.59177 9.40553 1.94466 9.40833 2.20703 9.39844L2.42969 9.38477H2.43066C2.43262 9.38468 2.43663 9.38421 2.44434 9.38379C2.45482 9.38322 2.47733 9.3793 2.50488 9.375L2.50098 9.38477H13.832L13.8262 9.375C13.8341 9.37634 13.8405 9.37921 13.8457 9.37988C13.8551 9.3811 13.8641 9.3824 13.8682 9.38281C13.8704 9.38304 13.8719 9.38367 13.873 9.38379H13.875C14.0023 9.39938 14.2102 9.40474 14.3994 9.4043C14.4946 9.40407 14.5936 9.40199 14.6846 9.39844L14.9209 9.38281C15.3407 9.33359 15.6068 8.95998 15.6543 8.62012C15.6766 8.46098 15.6873 8.26452 15.6719 8.07031C15.6607 7.92991 15.6344 7.76961 15.5762 7.62012L15.5068 7.47559C15.2872 7.10102 15.0109 6.74221 14.75 6.40332C14.4837 6.05737 14.2325 5.7314 14.0322 5.39844L14.0195 5.37695L14.0039 5.3584L13.8877 5.22363C13.8433 5.17735 13.7927 5.13101 13.7354 5.09082C13.6413 5.02504 13.5383 4.98096 13.4229 4.95703L13.3027 4.93945L13.1104 4.92871C12.9171 4.92232 12.7236 4.92823 12.543 4.93457C12.2945 4.9433 12.0698 4.95268 11.8574 4.93945L11.2119 4.89941L11.2334 4.93848ZM2.71973 4.56543H13.6182V1.72559H2.71973V4.56543ZM14.1357 10.0137L14.0371 9.90918L13.999 9.86914L13.8926 9.75781H2.22754V17.416H14.1357V10.0137Z" fill="#757575" stroke="#757575" stroke-width="0.716196"/>
</svg>
