<svg width="18" height="19" viewBox="0 0 18 19" fill="none" xmlns="http://www.w3.org/2000/svg">
<path d="M10.0414 0.840291C10.3545 0.938216 10.6067 1.09695 10.7609 1.40861C10.9594 1.81015 10.9211 2.3968 11.0399 2.82293C11.0566 2.88196 11.0638 2.90878 11.1179 2.94187C11.2487 3.02281 11.6206 3.12341 11.7974 3.20077C11.9345 3.26069 12.0602 3.34788 12.1982 3.40556C12.8274 3.05098 13.4077 2.18754 14.2051 2.61993C14.4437 2.74915 15.5061 3.84913 15.639 4.0964C16.1042 4.96029 15.2714 5.56125 14.9297 6.24806L15.363 7.36503C15.3873 7.40438 15.4256 7.41332 15.4652 7.4254C15.8721 7.55194 16.431 7.50901 16.8156 7.71783C17.1134 7.87925 17.2646 8.14351 17.3584 8.47127V10.3457C17.1317 11.3741 16.1187 11.2069 15.3528 11.4247L14.9093 12.5711C15.2953 13.2615 16.1098 13.8781 15.6075 14.7537C15.4622 15.0067 14.5429 15.9726 14.3018 16.1304C13.449 16.6894 12.8764 15.8138 12.1987 15.4114C11.8476 15.5836 11.4962 15.7647 11.1188 15.8675C10.8798 16.7014 11.0604 17.8931 9.9315 17.9785C9.55534 18.0071 8.42176 18.0259 8.1078 17.9114C7.30394 17.6181 7.44111 16.5744 7.25495 15.876C7.07517 15.8205 6.89285 15.7584 6.71947 15.6842C6.60913 15.6368 6.29687 15.4503 6.21593 15.4382C6.18015 15.4329 6.15416 15.4391 6.12605 15.4637C5.48918 15.8876 4.90769 16.6911 4.08849 16.1644C3.8461 16.0088 2.83819 14.9424 2.71976 14.6866C2.33082 13.8482 3.12105 13.2673 3.45887 12.606L3.0154 11.4725C2.24818 11.24 1.23004 11.4166 1 10.3797V8.50525C1.15805 7.91994 1.45113 7.73885 1.9896 7.61767C2.26437 7.55596 2.6827 7.54389 2.92552 7.46027C3.03074 7.42406 3.10699 7.02475 3.15683 6.89911C3.2399 6.68984 3.34683 6.48908 3.42734 6.27847C3.06226 5.60731 2.24818 4.98935 2.69207 4.1362C2.81944 3.89116 3.84269 2.81667 4.07657 2.67448C4.89832 2.17502 5.47683 3.04203 6.12733 3.41585L7.20894 2.95126C7.44239 2.15311 7.26219 1.07728 8.25221 0.839844H10.0414V0.840291ZM8.40003 1.81507C8.34337 1.83564 8.34295 1.92283 8.33102 1.97738C8.23304 2.4214 8.2177 3.055 8.08394 3.45922C7.96338 3.82364 7.36869 3.89474 7.03896 4.03783C6.81744 4.13396 6.28069 4.48229 6.09538 4.48229C5.74137 4.48229 4.73899 3.46235 4.57499 3.49946L3.48997 4.64058L4.38243 6.0151C4.54815 6.39473 4.19329 6.80699 4.05101 7.1665C3.93897 7.45044 3.81969 8.12205 3.60371 8.27095C3.54023 8.31477 3.44524 8.34204 3.37069 8.36172C3.17387 8.41403 1.99087 8.55757 1.94061 8.63761L1.9257 10.1955C1.93251 10.2688 1.98661 10.2858 2.04583 10.3041C2.40921 10.4155 3.36174 10.4409 3.62032 10.6296C3.83715 10.7875 3.93982 11.3683 4.05143 11.6509C4.14004 11.8754 4.48084 12.4594 4.48212 12.6391C4.48254 12.7133 4.4442 12.8332 4.41268 12.9016C4.24015 13.2812 3.79029 13.7248 3.58496 14.1093L3.55429 14.2439C3.67357 14.3968 4.53239 15.3582 4.62696 15.3685C4.66317 15.3725 4.69767 15.36 4.72834 15.3412C5.10109 15.1087 5.45765 14.7411 5.82657 14.5167C5.92711 14.4554 6.00592 14.4009 6.12647 14.3942C6.37526 14.3803 6.83832 14.7049 7.10244 14.8145C7.36656 14.924 7.92419 15.0282 8.06051 15.25C8.11163 15.3332 8.12569 15.4338 8.14656 15.5281C8.24028 15.9484 8.24539 16.4823 8.35615 16.8816C8.36766 16.9228 8.37703 16.963 8.41153 16.9912L9.89742 17.0077C9.92426 17.0068 9.94343 16.9947 9.96217 16.9751C10.0427 16.891 10.162 15.6453 10.2416 15.3935C10.3669 14.9996 10.9096 14.9589 11.2547 14.8145C11.5205 14.7031 12.0538 14.3392 12.2932 14.3615C12.4227 14.3736 12.5442 14.484 12.6519 14.5565C12.9961 14.7881 13.3152 15.0725 13.6526 15.3157L13.829 15.3019C13.9546 15.11 14.8152 14.3503 14.8347 14.2104C14.8403 14.1706 14.8369 14.1317 14.8164 14.0964C14.6456 13.7655 13.9423 12.9973 13.9091 12.6691C13.8826 12.4106 14.2307 11.8655 14.338 11.5843C14.4398 11.3178 14.5429 10.7226 14.7534 10.5805C14.8326 10.5268 14.9289 10.5125 15.0188 10.4901C15.4201 10.3918 15.9296 10.3864 16.3108 10.2706C16.35 10.2585 16.3884 10.2487 16.4152 10.2129L16.431 8.65594C16.4301 8.62777 16.4186 8.60765 16.3999 8.58797C16.3198 8.50346 15.1304 8.37871 14.8901 8.29509C14.7713 8.25351 14.6639 8.17749 14.603 8.06034C14.4778 7.81933 14.3896 7.34267 14.2635 7.04353C14.1195 6.70192 13.7753 6.31648 13.9764 5.95071L14.8164 4.72196L14.8347 4.60794C14.7155 4.45501 13.8567 3.4941 13.7621 3.48381C13.7259 3.47979 13.6914 3.49231 13.6607 3.51109L12.4453 4.41343C12.0951 4.56009 11.6065 4.14916 11.2551 4.00429C10.9582 3.88222 10.372 3.79994 10.2416 3.4932C10.0678 3.08496 10.09 2.35298 9.97026 1.90315L9.91403 1.82803L8.40046 1.81596L8.40003 1.81507Z" fill="#757575" stroke="#757575" stroke-width="0.179049"/>
<path d="M9.16988 5.70315C12.0156 5.69242 13.7196 9.10056 12.0628 11.5384C10.7158 13.521 7.95962 13.6324 6.46564 11.7642C4.55461 9.37511 6.21558 5.71433 9.16988 5.70315ZM9.11067 6.66988C7.07184 6.72443 5.88799 9.14572 7.0139 10.9222C8.05291 12.5615 10.4147 12.523 11.3983 10.8422C12.479 8.99548 11.1763 6.61488 9.11067 6.66988Z" fill="#757575" stroke="#757575" stroke-width="0.179049"/>
</svg>
